<svg width="197" height="112" viewBox="0 0 197 112" fill="none" xmlns="http://www.w3.org/2000/svg">
<g filter="url(#filter0_b_4_5382)">
<mask id="path-1-inside-1_4_5382" fill="white">
<path fill-rule="evenodd" clip-rule="evenodd" d="M80.1942 65.9721C80.2627 65.9729 80.3313 65.9733 80.4 65.9733C90.1787 65.9733 98.1059 58.0939 98.1059 48.3743C98.1059 38.6547 90.1787 30.7754 80.4 30.7754C80.3313 30.7754 80.2627 30.7758 80.1942 30.7765V30.7754H75.6201C75.7853 29.571 75.8707 28.3414 75.8707 27.0919C75.8707 12.1734 63.7034 0.0795746 48.6942 0.0795746C33.6851 0.0795746 21.5177 12.1734 21.5177 27.0919C21.5177 28.4996 21.6261 29.8821 21.8349 31.2316C20.5424 30.9332 19.1957 30.7754 17.8118 30.7754C8.03315 30.7754 0.105957 38.6547 0.105957 48.3743C0.105957 58.0939 8.03315 65.9733 17.8118 65.9733C17.8809 65.9733 17.9498 65.9729 18.0186 65.9721L18.0177 65.9733H80.1942V65.9721Z"/>
</mask>
<path fill-rule="evenodd" clip-rule="evenodd" d="M80.1942 65.9721C80.2627 65.9729 80.3313 65.9733 80.4 65.9733C90.1787 65.9733 98.1059 58.0939 98.1059 48.3743C98.1059 38.6547 90.1787 30.7754 80.4 30.7754C80.3313 30.7754 80.2627 30.7758 80.1942 30.7765V30.7754H75.6201C75.7853 29.571 75.8707 28.3414 75.8707 27.0919C75.8707 12.1734 63.7034 0.0795746 48.6942 0.0795746C33.6851 0.0795746 21.5177 12.1734 21.5177 27.0919C21.5177 28.4996 21.6261 29.8821 21.8349 31.2316C20.5424 30.9332 19.1957 30.7754 17.8118 30.7754C8.03315 30.7754 0.105957 38.6547 0.105957 48.3743C0.105957 58.0939 8.03315 65.9733 17.8118 65.9733C17.8809 65.9733 17.9498 65.9729 18.0186 65.9721L18.0177 65.9733H80.1942V65.9721Z" fill="url(#paint0_linear_4_5382)"/>
<path d="M80.1942 65.9721L80.2169 63.9722C79.6825 63.9662 79.168 64.1742 78.788 64.5499C78.408 64.9256 78.1942 65.4377 78.1942 65.9721H80.1942ZM80.1942 30.7765H78.1942C78.1942 31.3109 78.408 31.823 78.788 32.1987C79.168 32.5744 79.6825 32.7825 80.2168 32.7764L80.1942 30.7765ZM80.1942 30.7754H82.1942C82.1942 29.6708 81.2987 28.7754 80.1942 28.7754V30.7754ZM75.6201 30.7754L73.6387 30.5036C73.5602 31.076 73.7331 31.6545 74.1129 32.09C74.4927 32.5255 75.0423 32.7754 75.6201 32.7754V30.7754ZM21.8349 31.2316L21.3848 33.1804C22.0315 33.3297 22.71 33.1485 23.1962 32.6968C23.6824 32.2451 23.9128 31.5816 23.8114 30.9258L21.8349 31.2316ZM18.0186 65.9721L19.585 67.2156C20.0648 66.6113 20.1541 65.7849 19.8146 65.092C19.4751 64.3992 18.7673 63.9634 17.9958 63.9722L18.0186 65.9721ZM18.0177 65.9733L16.4512 64.7298C15.9741 65.3309 15.883 66.152 16.2167 66.843C16.5505 67.5341 17.2502 67.9733 18.0177 67.9733V65.9733ZM80.1942 65.9733V67.9733C81.2987 67.9733 82.1942 67.0778 82.1942 65.9733H80.1942ZM80.1715 67.972C80.2476 67.9728 80.3238 67.9733 80.4 67.9733V63.9733C80.3389 63.9733 80.2778 63.9729 80.2169 63.9722L80.1715 67.972ZM80.4 67.9733C91.2719 67.9733 100.106 59.2099 100.106 48.3743H96.1059C96.1059 56.978 89.0856 63.9733 80.4 63.9733V67.9733ZM100.106 48.3743C100.106 37.5387 91.2719 28.7754 80.4 28.7754V32.7754C89.0856 32.7754 96.1059 39.7707 96.1059 48.3743H100.106ZM80.4 28.7754C80.3238 28.7754 80.2476 28.7758 80.1715 28.7767L80.2168 32.7764C80.2778 32.7757 80.3389 32.7754 80.4 32.7754V28.7754ZM78.1942 30.7754V30.7765H82.1942V30.7754H78.1942ZM75.6201 32.7754H80.1942V28.7754H75.6201V32.7754ZM77.6016 31.0472C77.7791 29.753 77.8707 28.4325 77.8707 27.0919H73.8707C73.8707 28.2502 73.7916 29.389 73.6387 30.5036L77.6016 31.0472ZM77.8707 27.0919C77.8707 11.0574 64.7965 -1.92043 48.6942 -1.92043V2.07957C62.6102 2.07957 73.8707 13.2894 73.8707 27.0919H77.8707ZM48.6942 -1.92043C32.5919 -1.92043 19.5177 11.0574 19.5177 27.0919H23.5177C23.5177 13.2894 34.7782 2.07957 48.6942 2.07957V-1.92043ZM19.5177 27.0919C19.5177 28.6023 19.634 30.0871 19.8584 31.5375L23.8114 30.9258C23.6181 29.6771 23.5177 28.3968 23.5177 27.0919H19.5177ZM22.2849 29.2829C20.8459 28.9506 19.3482 28.7754 17.8118 28.7754V32.7754C19.0432 32.7754 20.239 32.9157 21.3848 33.1804L22.2849 29.2829ZM17.8118 28.7754C6.94003 28.7754 -1.89404 37.5387 -1.89404 48.3743H2.10596C2.10596 39.7707 9.12628 32.7754 17.8118 32.7754V28.7754ZM-1.89404 48.3743C-1.89404 59.2099 6.94003 67.9733 17.8118 67.9733V63.9733C9.12628 63.9733 2.10596 56.978 2.10596 48.3743H-1.89404ZM17.8118 67.9733C17.8884 67.9733 17.9649 67.9728 18.0414 67.972L17.9958 63.9722C17.9347 63.9729 17.8733 63.9733 17.8118 63.9733V67.9733ZM19.5841 67.2167L19.585 67.2156L16.4522 64.7286L16.4512 64.7298L19.5841 67.2167ZM80.1942 63.9733H18.0177V67.9733H80.1942V63.9733ZM78.1942 65.9721V65.9733H82.1942V65.9721H78.1942Z" fill="url(#paint1_linear_4_5382)" mask="url(#path-1-inside-1_4_5382)"/>
</g>
<g filter="url(#filter1_b_4_5382)">
<mask id="path-3-inside-2_4_5382" fill="white">
<path fill-rule="evenodd" clip-rule="evenodd" d="M133.716 111.078C133.811 111.079 133.906 111.08 134.001 111.08C147.532 111.08 158.501 100.177 158.501 86.7276C158.501 73.2783 147.532 62.3755 134.001 62.3755C133.906 62.3755 133.811 62.3761 133.716 62.3771V62.3755H127.387C127.616 60.709 127.734 59.0074 127.734 57.2785C127.734 36.6354 110.898 19.901 90.1291 19.901C69.3606 19.901 52.5245 36.6354 52.5245 57.2785C52.5245 59.2263 52.6744 61.1394 52.9633 63.0069C51.1749 62.5939 49.3114 62.3755 47.3965 62.3755C33.8655 62.3755 22.8965 73.2783 22.8965 86.7276C22.8965 100.177 33.8655 111.08 47.3965 111.08C47.492 111.08 47.5874 111.079 47.6827 111.078L47.6814 111.08H133.716V111.078Z"/>
</mask>
<path fill-rule="evenodd" clip-rule="evenodd" d="M133.716 111.078C133.811 111.079 133.906 111.08 134.001 111.08C147.532 111.08 158.501 100.177 158.501 86.7276C158.501 73.2783 147.532 62.3755 134.001 62.3755C133.906 62.3755 133.811 62.3761 133.716 62.3771V62.3755H127.387C127.616 60.709 127.734 59.0074 127.734 57.2785C127.734 36.6354 110.898 19.901 90.1291 19.901C69.3606 19.901 52.5245 36.6354 52.5245 57.2785C52.5245 59.2263 52.6744 61.1394 52.9633 63.0069C51.1749 62.5939 49.3114 62.3755 47.3965 62.3755C33.8655 62.3755 22.8965 73.2783 22.8965 86.7276C22.8965 100.177 33.8655 111.08 47.3965 111.08C47.492 111.08 47.5874 111.079 47.6827 111.078L47.6814 111.08H133.716V111.078Z" fill="url(#paint2_linear_4_5382)"/>
<path d="M133.716 111.078L133.739 109.078C133.205 109.072 132.69 109.28 132.31 109.656C131.93 110.031 131.716 110.544 131.716 111.078H133.716ZM133.716 62.3771H131.716C131.716 62.9115 131.93 63.4236 132.31 63.7993C132.69 64.175 133.205 64.3831 133.739 64.377L133.716 62.3771ZM133.716 62.3755H135.716C135.716 61.271 134.821 60.3755 133.716 60.3755V62.3755ZM127.387 62.3755L125.406 62.1037C125.327 62.6762 125.5 63.2546 125.88 63.6901C126.26 64.1256 126.809 64.3755 127.387 64.3755V62.3755ZM52.9633 63.0069L52.5133 64.9556C53.1599 65.1049 53.8385 64.9238 54.3247 64.4721C54.8108 64.0204 55.0413 63.3569 54.9398 62.7011L52.9633 63.0069ZM47.6827 111.078L49.2485 112.322C49.7286 111.718 49.8183 110.891 49.4789 110.198C49.1395 109.505 48.4316 109.069 47.6599 109.078L47.6827 111.078ZM47.6814 111.08L46.1155 109.835C45.638 110.436 45.5465 111.258 45.8802 111.949C46.2139 112.64 46.9138 113.08 47.6814 113.08V111.08ZM133.716 111.08V113.08C134.821 113.08 135.716 112.184 135.716 111.08H133.716ZM133.694 113.078C133.796 113.079 133.899 113.08 134.001 113.08V109.08C133.914 109.08 133.826 109.079 133.739 109.078L133.694 113.078ZM134.001 113.08C148.625 113.08 160.501 101.293 160.501 86.7276H156.501C156.501 99.0608 146.439 109.08 134.001 109.08V113.08ZM160.501 86.7276C160.501 72.1623 148.625 60.3755 134.001 60.3755V64.3755C146.439 64.3755 156.501 74.3943 156.501 86.7276H160.501ZM134.001 60.3755C133.899 60.3755 133.796 60.3761 133.694 60.3773L133.739 64.377C133.826 64.376 133.914 64.3755 134.001 64.3755V60.3755ZM131.716 62.3755V62.3771H135.716V62.3755H131.716ZM127.387 64.3755H133.716V60.3755H127.387V64.3755ZM129.369 62.6473C129.609 60.891 129.734 59.0986 129.734 57.2785H125.734C125.734 58.9162 125.622 60.5269 125.406 62.1037L129.369 62.6473ZM129.734 57.2785C129.734 35.5195 111.991 17.901 90.1291 17.901V21.901C109.804 21.901 125.734 37.7514 125.734 57.2785H129.734ZM90.1291 17.901C68.2675 17.901 50.5245 35.5195 50.5245 57.2785H54.5245C54.5245 37.7514 70.4538 21.901 90.1291 21.901V17.901ZM50.5245 57.2785C50.5245 59.3291 50.6823 61.3444 50.9869 63.3127L54.9398 62.7011C54.6664 60.9344 54.5245 59.1236 54.5245 57.2785H50.5245ZM53.4134 61.0582C51.4784 60.6113 49.4639 60.3755 47.3965 60.3755V64.3755C49.1589 64.3755 50.8715 64.5764 52.5133 64.9556L53.4134 61.0582ZM47.3965 60.3755C32.7724 60.3755 20.8965 72.1623 20.8965 86.7276H24.8965C24.8965 74.3943 34.9586 64.3755 47.3965 64.3755V60.3755ZM20.8965 86.7276C20.8965 101.293 32.7724 113.08 47.3965 113.08V109.08C34.9586 109.08 24.8965 99.0608 24.8965 86.7276H20.8965ZM47.3965 113.08C47.4996 113.08 47.6026 113.079 47.7054 113.078L47.6599 109.078C47.5723 109.079 47.4845 109.08 47.3965 109.08V113.08ZM49.2472 112.324L49.2485 112.322L46.1168 109.834L46.1155 109.835L49.2472 112.324ZM133.716 109.08H47.6814V113.08H133.716V109.08ZM131.716 111.078V111.08H135.716V111.078H131.716Z" fill="url(#paint3_linear_4_5382)" mask="url(#path-3-inside-2_4_5382)"/>
</g>
<g filter="url(#filter2_b_4_5382)">
<mask id="path-5-inside-3_4_5382" fill="white">
<path fill-rule="evenodd" clip-rule="evenodd" d="M178.194 85.7936C178.263 85.7944 178.331 85.7948 178.4 85.7948C188.179 85.7948 196.106 77.9155 196.106 68.1958C196.106 58.4762 188.179 50.5969 178.4 50.5969C178.331 50.5969 178.263 50.5973 178.194 50.598V50.5969H173.62C173.785 49.3925 173.871 48.1628 173.871 46.9133C173.871 31.9948 161.703 19.901 146.694 19.901C131.685 19.901 119.518 31.9948 119.518 46.9133C119.518 48.321 119.626 49.7035 119.835 51.0532C118.542 50.7547 117.196 50.5969 115.812 50.5969C106.033 50.5969 98.106 58.4762 98.106 68.1958C98.106 77.9155 106.033 85.7948 115.812 85.7948C115.881 85.7948 115.95 85.7944 116.019 85.7936L116.018 85.7948H178.194V85.7936Z"/>
</mask>
<path fill-rule="evenodd" clip-rule="evenodd" d="M178.194 85.7936C178.263 85.7944 178.331 85.7948 178.4 85.7948C188.179 85.7948 196.106 77.9155 196.106 68.1958C196.106 58.4762 188.179 50.5969 178.4 50.5969C178.331 50.5969 178.263 50.5973 178.194 50.598V50.5969H173.62C173.785 49.3925 173.871 48.1628 173.871 46.9133C173.871 31.9948 161.703 19.901 146.694 19.901C131.685 19.901 119.518 31.9948 119.518 46.9133C119.518 48.321 119.626 49.7035 119.835 51.0532C118.542 50.7547 117.196 50.5969 115.812 50.5969C106.033 50.5969 98.106 58.4762 98.106 68.1958C98.106 77.9155 106.033 85.7948 115.812 85.7948C115.881 85.7948 115.95 85.7944 116.019 85.7936L116.018 85.7948H178.194V85.7936Z" fill="url(#paint4_linear_4_5382)"/>
<path d="M178.194 85.7936L178.217 83.7937C177.683 83.7877 177.168 83.9957 176.788 84.3714C176.408 84.7471 176.194 85.2592 176.194 85.7936H178.194ZM178.194 50.598H176.194C176.194 51.1324 176.408 51.6445 176.788 52.0202C177.168 52.3959 177.683 52.604 178.217 52.5979L178.194 50.598ZM178.194 50.5969H180.194C180.194 49.4923 179.299 48.5969 178.194 48.5969V50.5969ZM173.62 50.5969L171.639 50.3251C171.56 50.8975 171.733 51.476 172.113 51.9115C172.493 52.347 173.042 52.5969 173.62 52.5969V50.5969ZM119.835 51.0532L119.385 53.0019C120.031 53.1512 120.71 52.9701 121.196 52.5183C121.682 52.0666 121.913 51.4032 121.811 50.7473L119.835 51.0532ZM116.019 85.7936L117.584 87.0387C118.064 86.4345 118.154 85.6078 117.815 84.9145C117.476 84.2211 116.768 83.7849 115.996 83.7937L116.019 85.7936ZM116.018 85.7948L114.453 84.5497C113.975 85.1506 113.883 85.9721 114.216 86.6637C114.55 87.3552 115.25 87.7948 116.018 87.7948V85.7948ZM178.194 85.7948V87.7948C179.299 87.7948 180.194 86.8993 180.194 85.7948H178.194ZM178.172 87.7935C178.248 87.7943 178.324 87.7948 178.4 87.7948V83.7948C178.339 83.7948 178.278 83.7944 178.217 83.7937L178.172 87.7935ZM178.4 87.7948C189.272 87.7948 198.106 79.0314 198.106 68.1958H194.106C194.106 76.7995 187.086 83.7948 178.4 83.7948V87.7948ZM198.106 68.1958C198.106 57.3602 189.272 48.5969 178.4 48.5969V52.5969C187.086 52.5969 194.106 59.5922 194.106 68.1958H198.106ZM178.4 48.5969C178.324 48.5969 178.248 48.5973 178.172 48.5982L178.217 52.5979C178.278 52.5972 178.339 52.5969 178.4 52.5969V48.5969ZM176.194 50.5969V50.598H180.194V50.5969H176.194ZM173.62 52.5969H178.194V48.5969H173.62V52.5969ZM175.602 50.8687C175.779 49.5745 175.871 48.254 175.871 46.9133H171.871C171.871 48.0716 171.792 49.2105 171.639 50.3251L175.602 50.8687ZM175.871 46.9133C175.871 30.8788 162.796 17.901 146.694 17.901V21.901C160.61 21.901 171.871 33.1108 171.871 46.9133H175.871ZM146.694 17.901C130.592 17.901 117.518 30.8788 117.518 46.9133H121.518C121.518 33.1108 132.778 21.901 146.694 21.901V17.901ZM117.518 46.9133C117.518 48.4238 117.634 49.9086 117.858 51.359L121.811 50.7473C121.618 49.4985 121.518 48.2182 121.518 46.9133H117.518ZM120.285 49.1044C118.846 48.7721 117.348 48.5969 115.812 48.5969V52.5969C117.043 52.5969 118.239 52.7372 119.385 53.0019L120.285 49.1044ZM115.812 48.5969C104.94 48.5969 96.106 57.3602 96.106 68.1958H100.106C100.106 59.5922 107.126 52.5969 115.812 52.5969V48.5969ZM96.106 68.1958C96.106 79.0314 104.94 87.7948 115.812 87.7948V83.7948C107.126 83.7948 100.106 76.7995 100.106 68.1958H96.106ZM115.812 87.7948C115.888 87.7948 115.965 87.7943 116.042 87.7935L115.996 83.7937C115.935 83.7944 115.873 83.7948 115.812 83.7948V87.7948ZM117.583 87.0398L117.584 87.0387L114.454 84.5486L114.453 84.5497L117.583 87.0398ZM178.194 83.7948H116.018V87.7948H178.194V83.7948ZM176.194 85.7936V85.7948H180.194V85.7936H176.194Z" fill="url(#paint5_linear_4_5382)" mask="url(#path-5-inside-3_4_5382)"/>
</g>
<defs>
<filter id="filter0_b_4_5382" x="-13.894" y="-13.9204" width="126" height="93.8937" filterUnits="userSpaceOnUse" color-interpolation-filters="sRGB">
<feFlood flood-opacity="0" result="BackgroundImageFix"/>
<feGaussianBlur in="BackgroundImageFix" stdDeviation="7"/>
<feComposite in2="SourceAlpha" operator="in" result="effect1_backgroundBlur_4_5382"/>
<feBlend mode="normal" in="SourceGraphic" in2="effect1_backgroundBlur_4_5382" result="shape"/>
</filter>
<filter id="filter1_b_4_5382" x="8.89648" y="5.90096" width="163.605" height="119.179" filterUnits="userSpaceOnUse" color-interpolation-filters="sRGB">
<feFlood flood-opacity="0" result="BackgroundImageFix"/>
<feGaussianBlur in="BackgroundImageFix" stdDeviation="7"/>
<feComposite in2="SourceAlpha" operator="in" result="effect1_backgroundBlur_4_5382"/>
<feBlend mode="normal" in="SourceGraphic" in2="effect1_backgroundBlur_4_5382" result="shape"/>
</filter>
<filter id="filter2_b_4_5382" x="84.106" y="5.90096" width="126" height="93.8938" filterUnits="userSpaceOnUse" color-interpolation-filters="sRGB">
<feFlood flood-opacity="0" result="BackgroundImageFix"/>
<feGaussianBlur in="BackgroundImageFix" stdDeviation="7"/>
<feComposite in2="SourceAlpha" operator="in" result="effect1_backgroundBlur_4_5382"/>
<feBlend mode="normal" in="SourceGraphic" in2="effect1_backgroundBlur_4_5382" result="shape"/>
</filter>
<linearGradient id="paint0_linear_4_5382" x1="53.6641" y1="2.06172" x2="53.6641" y2="73.4188" gradientUnits="userSpaceOnUse">
<stop stop-color="white"/>
<stop offset="1" stop-color="white" stop-opacity="0"/>
</linearGradient>
<linearGradient id="paint1_linear_4_5382" x1="49.106" y1="0.0795746" x2="49.106" y2="65.9733" gradientUnits="userSpaceOnUse">
<stop stop-color="white"/>
<stop offset="1" stop-color="white" stop-opacity="0"/>
</linearGradient>
<linearGradient id="paint2_linear_4_5382" x1="90.6988" y1="-9.26485" x2="90.6988" y2="123.822" gradientUnits="userSpaceOnUse">
<stop stop-color="white"/>
<stop offset="1" stop-color="white" stop-opacity="0"/>
</linearGradient>
<linearGradient id="paint3_linear_4_5382" x1="90.6988" y1="19.901" x2="90.6988" y2="111.079" gradientUnits="userSpaceOnUse">
<stop stop-color="white"/>
<stop offset="1" stop-color="white" stop-opacity="0"/>
</linearGradient>
<linearGradient id="paint4_linear_4_5382" x1="151.664" y1="21.8831" x2="151.664" y2="93.2402" gradientUnits="userSpaceOnUse">
<stop stop-color="white"/>
<stop offset="1" stop-color="white" stop-opacity="0"/>
</linearGradient>
<linearGradient id="paint5_linear_4_5382" x1="147.106" y1="19.901" x2="147.106" y2="85.7947" gradientUnits="userSpaceOnUse">
<stop stop-color="white"/>
<stop offset="1" stop-color="white" stop-opacity="0"/>
</linearGradient>
</defs>
</svg>
