<svg width="161" height="140" viewBox="0 0 161 140" fill="none" xmlns="http://www.w3.org/2000/svg">
<mask id="path-1-inside-1_4_5173" fill="white">
<path fill-rule="evenodd" clip-rule="evenodd" d="M106.492 9.23743C107.363 9.1679 107.864 10.1879 107.332 10.8771C98.244 22.6502 96.2372 39.0662 103.544 53.1715C113.009 71.4431 134.741 79.3458 153.532 72.0087C154.345 71.6911 155.191 72.4547 154.881 73.2683C150.871 83.7867 143.09 92.915 132.242 98.4556C108.919 110.367 80.254 101.185 68.2158 77.9468C56.1777 54.7085 65.3254 26.214 88.6478 14.3025C94.3817 11.3741 100.438 9.72057 106.492 9.23743Z"/>
</mask>
<path fill-rule="evenodd" clip-rule="evenodd" d="M106.492 9.23743C107.363 9.1679 107.864 10.1879 107.332 10.8771C98.244 22.6502 96.2372 39.0662 103.544 53.1715C113.009 71.4431 134.741 79.3458 153.532 72.0087C154.345 71.6911 155.191 72.4547 154.881 73.2683C150.871 83.7867 143.09 92.915 132.242 98.4556C108.919 110.367 80.254 101.185 68.2158 77.9468C56.1777 54.7085 65.3254 26.214 88.6478 14.3025C94.3817 11.3741 100.438 9.72057 106.492 9.23743Z" fill="url(#paint0_linear_4_5173)"/>
<path d="M103.544 53.1715L101.764 54.0828L101.764 54.0828L103.544 53.1715ZM132.242 98.4556L133.16 100.232L133.16 100.232L132.242 98.4556ZM68.2158 77.9468L66.4355 78.8581L68.2158 77.9468ZM88.6478 14.3025L87.7295 12.5258L88.6478 14.3025ZM153.532 72.0087L152.796 70.1501L153.532 72.0087ZM154.881 73.2683L156.754 73.9814L154.881 73.2683ZM107.332 10.8771L108.922 12.0966L107.332 10.8771ZM106.492 9.23743L106.657 11.2271L106.492 9.23743ZM105.324 52.2602C98.3873 38.8688 100.289 23.2805 108.922 12.0966L105.742 9.65766C96.1992 22.0199 94.0871 39.2637 101.764 54.0828L105.324 52.2602ZM152.796 70.1501C134.951 77.1178 114.312 69.6101 105.324 52.2602L101.764 54.0828C111.707 73.2762 134.53 81.5737 154.268 73.8673L152.796 70.1501ZM153.007 72.5552C149.166 82.6309 141.716 91.3713 131.324 96.6789L133.16 100.232C144.465 94.4587 152.576 84.9424 156.754 73.9814L153.007 72.5552ZM131.324 96.6789C108.983 108.089 81.526 99.2924 69.9961 77.0355L66.4355 78.8581C78.982 103.078 108.856 112.645 133.16 100.232L131.324 96.6789ZM69.9961 77.0355C58.4669 54.7797 67.227 27.4886 89.5662 16.0792L87.7295 12.5258C63.4238 24.9395 53.8884 54.6373 66.4355 78.8581L69.9961 77.0355ZM89.5662 16.0792C95.0616 13.2725 100.862 11.6896 106.657 11.2271L106.326 7.24777C100.015 7.7515 93.7017 9.47563 87.7295 12.5258L89.5662 16.0792ZM154.268 73.8673C153.9 74.0109 153.511 73.9013 153.268 73.6774C153.011 73.4405 152.84 72.9938 153.007 72.5552L156.754 73.9814C157.759 71.345 155.021 69.2811 152.796 70.1501L154.268 73.8673ZM108.922 12.0966C110.378 10.2105 109.148 7.02256 106.326 7.24777L106.657 11.2271C106.188 11.2645 105.805 10.9764 105.648 10.665C105.5 10.3706 105.502 9.96912 105.742 9.65766L108.922 12.0966Z" fill="url(#paint1_linear_4_5173)" mask="url(#path-1-inside-1_4_5173)"/>
<g filter="url(#filter0_b_4_5173)">
<mask id="path-3-inside-2_4_5173" fill="white">
<path fill-rule="evenodd" clip-rule="evenodd" d="M103.61 139.078C103.699 139.079 103.788 139.08 103.877 139.08C116.515 139.08 126.76 128.896 126.76 116.333C126.76 103.771 116.515 93.5869 103.877 93.5869C103.788 93.5869 103.699 93.5874 103.61 93.5884V93.5869H97.699C97.9125 92.0301 98.0228 90.4407 98.0228 88.8257C98.0228 69.5438 82.298 53.9128 62.9004 53.9128C43.5029 53.9128 27.778 69.5438 27.778 88.8257C27.778 90.6452 27.918 92.4322 28.188 94.1766C26.5176 93.7908 24.7772 93.5869 22.9888 93.5869C10.3509 93.5869 0.105957 103.771 0.105957 116.333C0.105957 128.896 10.3509 139.08 22.9888 139.08C23.0779 139.08 23.1668 139.079 23.2557 139.078L23.2545 139.08H103.61V139.078Z"/>
</mask>
<path fill-rule="evenodd" clip-rule="evenodd" d="M103.61 139.078C103.699 139.079 103.788 139.08 103.877 139.08C116.515 139.08 126.76 128.896 126.76 116.333C126.76 103.771 116.515 93.5869 103.877 93.5869C103.788 93.5869 103.699 93.5874 103.61 93.5884V93.5869H97.699C97.9125 92.0301 98.0228 90.4407 98.0228 88.8257C98.0228 69.5438 82.298 53.9128 62.9004 53.9128C43.5029 53.9128 27.778 69.5438 27.778 88.8257C27.778 90.6452 27.918 92.4322 28.188 94.1766C26.5176 93.7908 24.7772 93.5869 22.9888 93.5869C10.3509 93.5869 0.105957 103.771 0.105957 116.333C0.105957 128.896 10.3509 139.08 22.9888 139.08C23.0779 139.08 23.1668 139.079 23.2557 139.078L23.2545 139.08H103.61V139.078Z" fill="url(#paint2_linear_4_5173)"/>
<path d="M103.61 139.078L103.633 137.078C103.099 137.072 102.584 137.28 102.204 137.656C101.824 138.032 101.61 138.544 101.61 139.078H103.61ZM103.61 93.5884H101.61C101.61 94.1228 101.824 94.6349 102.204 95.0106C102.584 95.3863 103.099 95.5943 103.633 95.5883L103.61 93.5884ZM103.61 93.5869H105.61C105.61 92.4823 104.715 91.5869 103.61 91.5869V93.5869ZM97.699 93.5869L95.7175 93.3151C95.639 93.8876 95.8119 94.466 96.1917 94.9015C96.5715 95.337 97.1211 95.5869 97.699 95.5869V93.5869ZM28.188 94.1766L27.7379 96.1253C28.3845 96.2746 29.0631 96.0935 29.5493 95.6418C30.0355 95.1901 30.2659 94.5266 30.1644 93.8708L28.188 94.1766ZM23.2557 139.078L24.823 140.32C25.3021 139.716 25.391 138.89 25.0514 138.197C24.7118 137.505 24.0043 137.069 23.233 137.078L23.2557 139.078ZM23.2545 139.08L21.6872 137.837C21.2106 138.438 21.1199 139.259 21.4538 139.95C21.7877 140.641 22.4873 141.08 23.2545 141.08V139.08ZM103.61 139.08V141.08C104.715 141.08 105.61 140.184 105.61 139.08H103.61ZM103.588 141.078C103.684 141.079 103.78 141.08 103.877 141.08V137.08C103.795 137.08 103.714 137.079 103.633 137.078L103.588 141.078ZM103.877 141.08C117.608 141.08 128.76 130.012 128.76 116.333H124.76C124.76 127.78 115.421 137.08 103.877 137.08V141.08ZM128.76 116.333C128.76 102.655 117.608 91.5869 103.877 91.5869V95.5869C115.421 95.5869 124.76 104.887 124.76 116.333H128.76ZM103.877 91.5869C103.78 91.5869 103.684 91.5874 103.588 91.5885L103.633 95.5883C103.714 95.5873 103.795 95.5869 103.877 95.5869V91.5869ZM101.61 93.5869V93.5884H105.61V93.5869H101.61ZM97.699 95.5869H103.61V91.5869H97.699V95.5869ZM99.6804 93.8587C99.9063 92.2121 100.023 90.5319 100.023 88.8257H96.0228C96.0228 90.3496 95.9188 91.8481 95.7175 93.3151L99.6804 93.8587ZM100.023 88.8257C100.023 68.428 83.3913 51.9128 62.9004 51.9128V55.9128C81.2047 55.9128 96.0228 70.6597 96.0228 88.8257H100.023ZM62.9004 51.9128C42.4096 51.9128 25.778 68.428 25.778 88.8257H29.778C29.778 70.6597 44.5961 55.9128 62.9004 55.9128V51.9128ZM25.778 88.8257C25.778 90.748 25.926 92.6372 26.2115 94.4824L30.1644 93.8708C29.9101 92.2272 29.778 90.5424 29.778 88.8257H25.778ZM28.638 92.2279C26.8211 91.8083 24.9297 91.5869 22.9888 91.5869V95.5869C24.6247 95.5869 26.2142 95.7734 27.7379 96.1253L28.638 92.2279ZM22.9888 91.5869C9.25766 91.5869 -1.89404 102.655 -1.89404 116.333H2.10596C2.10596 104.887 11.4442 95.5869 22.9888 95.5869V91.5869ZM-1.89404 116.333C-1.89404 130.012 9.25766 141.08 22.9888 141.08V137.08C11.4442 137.08 2.10596 127.78 2.10596 116.333H-1.89404ZM22.9888 141.08C23.0855 141.08 23.182 141.079 23.2784 141.078L23.233 137.078C23.1516 137.079 23.0702 137.08 22.9888 137.08V141.08ZM24.8218 140.322L24.823 140.32L21.6884 137.836L21.6872 137.837L24.8218 140.322ZM103.61 137.08H23.2545V141.08H103.61V137.08ZM101.61 139.078V139.08H105.61V139.078H101.61Z" fill="url(#paint3_linear_4_5173)" mask="url(#path-3-inside-2_4_5173)"/>
</g>
<defs>
<filter id="filter0_b_4_5173" x="-13.894" y="39.9128" width="154.654" height="113.167" filterUnits="userSpaceOnUse" color-interpolation-filters="sRGB">
<feFlood flood-opacity="0" result="BackgroundImageFix"/>
<feGaussianBlur in="BackgroundImageFix" stdDeviation="7"/>
<feComposite in2="SourceAlpha" operator="in" result="effect1_backgroundBlur_4_5173"/>
<feBlend mode="normal" in="SourceGraphic" in2="effect1_backgroundBlur_4_5173" result="shape"/>
</filter>
<linearGradient id="paint0_linear_4_5173" x1="80.5921" y1="19.3591" x2="123.737" y2="103.742" gradientUnits="userSpaceOnUse">
<stop offset="0.0001" stop-color="#D4C0FF"/>
<stop offset="1" stop-color="#7E2FFF"/>
</linearGradient>
<linearGradient id="paint1_linear_4_5173" x1="85.8176" y1="-27.1718" x2="113.156" y2="83.371" gradientUnits="userSpaceOnUse">
<stop stop-color="white"/>
<stop offset="1" stop-color="white" stop-opacity="0"/>
</linearGradient>
<linearGradient id="paint2_linear_4_5173" x1="69.3236" y1="56.4746" x2="69.3236" y2="148.703" gradientUnits="userSpaceOnUse">
<stop stop-color="white"/>
<stop offset="1" stop-color="white" stop-opacity="0"/>
</linearGradient>
<linearGradient id="paint3_linear_4_5173" x1="63.4327" y1="53.9128" x2="63.4327" y2="139.079" gradientUnits="userSpaceOnUse">
<stop stop-color="white"/>
<stop offset="1" stop-color="white" stop-opacity="0"/>
</linearGradient>
</defs>
</svg>
