<svg width="133" height="126" viewBox="0 0 133 126" fill="none" xmlns="http://www.w3.org/2000/svg">
<mask id="path-1-inside-1_4_5269" fill="white">
<path fill-rule="evenodd" clip-rule="evenodd" d="M112.673 76.2268C112.982 75.4107 112.138 74.6469 111.326 74.9686C91.7877 82.7079 69.1726 74.5031 59.3489 55.4412C51.763 40.7217 53.8896 23.5742 63.3887 11.2934C63.9224 10.6033 63.422 9.58174 62.5515 9.6516C55.1654 10.2444 47.9861 12.4939 41.5589 16.2588C33.6676 20.8814 27.2213 27.6062 22.9411 35.6811C18.6608 43.756 16.7155 52.8625 17.3226 61.9821C17.9296 71.1018 21.0652 79.8749 26.3786 87.3202C31.6919 94.7655 38.9736 100.59 47.409 104.141C55.8445 107.692 65.1012 108.83 74.1437 107.429C83.1862 106.027 91.658 102.14 98.6115 96.2035C104.915 90.8217 109.746 83.9474 112.673 76.2268Z"/>
</mask>
<path fill-rule="evenodd" clip-rule="evenodd" d="M112.673 76.2268C112.982 75.4107 112.138 74.6469 111.326 74.9686C91.7877 82.7079 69.1726 74.5031 59.3489 55.4412C51.763 40.7217 53.8896 23.5742 63.3887 11.2934C63.9224 10.6033 63.422 9.58174 62.5515 9.6516C55.1654 10.2444 47.9861 12.4939 41.5589 16.2588C33.6676 20.8814 27.2213 27.6062 22.9411 35.6811C18.6608 43.756 16.7155 52.8625 17.3226 61.9821C17.9296 71.1018 21.0652 79.8749 26.3786 87.3202C31.6919 94.7655 38.9736 100.59 47.409 104.141C55.8445 107.692 65.1012 108.83 74.1437 107.429C83.1862 106.027 91.658 102.14 98.6115 96.2035C104.915 90.8217 109.746 83.9474 112.673 76.2268Z" fill="url(#paint0_linear_4_5269)"/>
<path d="M59.3489 55.4412L57.5699 56.3551L57.5699 56.3551L59.3489 55.4412ZM41.5589 16.2588L42.5722 17.9833L41.5589 16.2588ZM22.9411 35.6811L21.1724 34.7447L21.1724 34.7447L22.9411 35.6811ZM17.3226 61.9821L15.3259 62.1132L15.3259 62.1132L17.3226 61.9821ZM26.3786 87.3202L24.7495 88.4797L26.3786 87.3202ZM47.409 104.141L48.185 102.299L48.185 102.299L47.409 104.141ZM74.1437 107.429L74.452 109.404L74.452 109.404L74.1437 107.429ZM98.6115 96.2035L97.3107 94.6836L97.3107 94.6836L98.6115 96.2035ZM63.3887 11.2934L64.9725 12.5164L63.3887 11.2934ZM62.5515 9.6516L62.3897 7.6591L62.5515 9.6516ZM111.326 74.9686L110.587 73.1103L111.326 74.9686ZM112.673 76.2268L114.544 76.9361L112.673 76.2268ZM110.587 73.1103C91.9962 80.4744 70.4754 72.6651 61.1279 54.5273L57.5699 56.3551C67.8699 76.3411 91.5793 84.9414 112.065 76.8268L110.587 73.1103ZM61.1279 54.5273C53.9108 40.5234 55.9303 24.2064 64.9725 12.5164L61.8048 10.0705C51.8489 22.9419 49.6152 40.9199 57.5699 56.3551L61.1279 54.5273ZM42.5722 17.9833C48.7386 14.3712 55.6267 12.2129 62.7133 11.6441L62.3897 7.6591C54.7041 8.27595 47.2336 10.6167 40.5457 14.5343L42.5722 17.9833ZM24.7097 36.6176C28.8162 28.8704 35.0009 22.4184 42.5722 17.9833L40.5457 14.5343C32.3342 19.3444 25.6264 26.3421 21.1724 34.7447L24.7097 36.6176ZM19.3192 61.851C18.7368 53.1016 20.6032 44.3647 24.7097 36.6176L21.1724 34.7447C16.7185 43.1473 14.6942 52.6234 15.3259 62.1132L19.3192 61.851ZM28.0077 86.1607C22.9099 79.0175 19.9016 70.6005 19.3192 61.851L15.3259 62.1132C15.9576 71.6031 19.2205 80.7322 24.7495 88.4797L28.0077 86.1607ZM48.185 102.299C40.0917 98.8916 33.1054 93.3039 28.0077 86.1607L24.7495 88.4797C30.2784 96.2272 37.8555 102.287 46.6331 105.983L48.185 102.299ZM73.8354 105.453C65.1596 106.798 56.2783 105.706 48.185 102.299L46.6331 105.983C55.4107 109.678 65.0428 110.862 74.452 109.404L73.8354 105.453ZM97.3107 94.6836C90.6393 100.379 82.5112 104.108 73.8354 105.453L74.452 109.404C83.8613 107.945 92.6767 103.901 99.9123 97.7235L97.3107 94.6836ZM110.802 75.5175C107.993 82.9248 103.359 89.5201 97.3107 94.6836L99.9123 97.7235C106.472 92.1233 111.498 84.9701 114.544 76.9361L110.802 75.5175ZM64.9725 12.5164C66.4387 10.6208 65.2011 7.43346 62.3897 7.6591L62.7133 11.6441C62.2459 11.6816 61.8647 11.3943 61.7082 11.0828C61.56 10.7876 61.5627 10.3836 61.8048 10.0705L64.9725 12.5164ZM112.065 76.8268C111.696 76.9728 111.306 76.8635 111.063 76.6391C110.806 76.4022 110.635 75.9559 110.802 75.5175L114.544 76.9361C115.544 74.299 112.817 72.2269 110.587 73.1103L112.065 76.8268Z" fill="url(#paint1_linear_4_5269)" mask="url(#path-1-inside-1_4_5269)"/>
<path d="M81.9681 14.5032L82.373 15.8745C82.6615 16.8514 83.426 17.6152 84.4031 17.9028L85.7658 18.3039C86.7227 18.5855 86.7227 19.9409 85.7658 20.2225L84.4031 20.6236C83.426 20.9112 82.6615 21.675 82.373 22.6519L81.9681 24.0232C81.6859 24.9789 80.3322 24.9789 80.05 24.0232L79.645 22.6519C79.3566 21.675 78.5921 20.9112 77.6149 20.6236L76.2522 20.2225C75.2954 19.9409 75.2954 18.5855 76.2522 18.3039L77.6149 17.9028C78.5921 17.6152 79.3566 16.8514 79.645 15.8745L80.05 14.5032C80.3322 13.5475 81.6859 13.5475 81.9681 14.5032Z" fill="url(#paint2_linear_4_5269)" stroke="url(#paint3_linear_4_5269)" stroke-width="2"/>
<path d="M91.7009 44.8686L92.9368 49.0541C93.2253 50.031 93.9897 50.7948 94.9669 51.0824L99.1484 52.3132C100.105 52.5948 100.105 53.9502 99.1484 54.2318L94.9669 55.4626C93.9897 55.7502 93.2253 56.514 92.9368 57.4909L91.7009 61.6764C91.4186 62.6321 90.065 62.6321 89.7827 61.6764L88.5468 57.4909C88.2583 56.514 87.4939 55.7502 86.5167 55.4626L82.3352 54.2318C81.3784 53.9502 81.3784 52.5948 82.3352 52.3132L86.5167 51.0824C87.4939 50.7948 88.2583 50.031 88.5468 49.0541L89.7827 44.8686C90.065 43.9129 91.4186 43.9129 91.7009 44.8686Z" fill="url(#paint4_linear_4_5269)" stroke="url(#paint5_linear_4_5269)" stroke-width="2"/>
<path d="M119.401 40.1789C120.374 39.8924 121.136 39.1315 121.423 38.1587C121.702 37.212 123.044 37.212 123.323 38.1587C123.611 39.1315 124.372 39.8924 125.345 40.1789C126.29 40.457 126.29 41.7956 125.345 42.0738C124.372 42.3603 123.611 43.1212 123.323 44.094C123.044 45.0406 121.702 45.0406 121.423 44.094C121.136 43.1212 120.374 42.3603 119.401 42.0738C118.456 41.7956 118.456 40.457 119.401 40.1789Z" fill="url(#paint6_linear_4_5269)" stroke="url(#paint7_linear_4_5269)" stroke-width="2"/>
<path d="M108.452 11.6353C109.425 11.3489 110.186 10.5879 110.474 9.61518C110.753 8.66852 112.095 8.66852 112.374 9.61518C112.661 10.5879 113.423 11.3489 114.396 11.6353C115.341 11.9135 115.341 13.2521 114.396 13.5303C113.423 13.8167 112.661 14.5777 112.374 15.5505C112.095 16.4971 110.753 16.4971 110.474 15.5505C110.186 14.5777 109.425 13.8167 108.452 13.5303C107.507 13.2521 107.507 11.9135 108.452 11.6353Z" fill="url(#paint8_linear_4_5269)" stroke="url(#paint9_linear_4_5269)" stroke-width="2"/>
<defs>
<linearGradient id="paint0_linear_4_5269" x1="35.5925" y1="20.2137" x2="80.6245" y2="107.904" gradientUnits="userSpaceOnUse">
<stop offset="0.0001" stop-color="#D6C2FF"/>
<stop offset="1" stop-color="#7E2FFF"/>
</linearGradient>
<linearGradient id="paint1_linear_4_5269" x1="41.0681" y1="-28.2592" x2="69.7065" y2="86.7662" gradientUnits="userSpaceOnUse">
<stop stop-color="white"/>
<stop offset="1" stop-color="white" stop-opacity="0"/>
</linearGradient>
<linearGradient id="paint2_linear_4_5269" x1="80.4842" y1="7.92762" x2="80.4842" y2="31.0054" gradientUnits="userSpaceOnUse">
<stop offset="0.0001" stop-color="#D6C2FF"/>
<stop offset="1" stop-color="#7E2FFF"/>
</linearGradient>
<linearGradient id="paint3_linear_4_5269" x1="81.009" y1="7.72433" x2="81.009" y2="21.9961" gradientUnits="userSpaceOnUse">
<stop stop-color="white"/>
<stop offset="1" stop-color="white" stop-opacity="0"/>
</linearGradient>
<linearGradient id="paint4_linear_4_5269" x1="90.7418" y1="38.0898" x2="90.7418" y2="68.4552" gradientUnits="userSpaceOnUse">
<stop stop-color="#FFE600"/>
<stop offset="1" stop-color="#FF7A00"/>
</linearGradient>
<linearGradient id="paint5_linear_4_5269" x1="90.7418" y1="38.0898" x2="90.7418" y2="56.8684" gradientUnits="userSpaceOnUse">
<stop stop-color="white"/>
<stop offset="1" stop-color="white" stop-opacity="0"/>
</linearGradient>
<linearGradient id="paint6_linear_4_5269" x1="121.931" y1="31.5806" x2="121.931" y2="51.0145" gradientUnits="userSpaceOnUse">
<stop offset="0.0001" stop-color="#D6C2FF"/>
<stop offset="1" stop-color="#7E2FFF"/>
</linearGradient>
<linearGradient id="paint7_linear_4_5269" x1="122.373" y1="31.4094" x2="122.373" y2="43.4277" gradientUnits="userSpaceOnUse">
<stop stop-color="white"/>
<stop offset="1" stop-color="white" stop-opacity="0"/>
</linearGradient>
<linearGradient id="paint8_linear_4_5269" x1="111.424" y1="2.86588" x2="111.424" y2="22.2998" gradientUnits="userSpaceOnUse">
<stop stop-color="#FFE600"/>
<stop offset="1" stop-color="#FF7A00"/>
</linearGradient>
<linearGradient id="paint9_linear_4_5269" x1="111.424" y1="2.86588" x2="111.424" y2="14.8842" gradientUnits="userSpaceOnUse">
<stop stop-color="white"/>
<stop offset="1" stop-color="white" stop-opacity="0"/>
</linearGradient>
</defs>
</svg>
