<svg width="171" height="123" viewBox="0 0 171 123" fill="none" xmlns="http://www.w3.org/2000/svg">
<g filter="url(#filter0_b_4_5176)">
<mask id="path-1-inside-1_4_5176" fill="white">
<path fill-rule="evenodd" clip-rule="evenodd" d="M108.872 90.469C108.965 90.47 109.059 90.4706 109.152 90.4706C122.432 90.4706 133.198 79.7217 133.198 66.4624C133.198 53.2031 122.432 42.4543 109.152 42.4543C109.059 42.4543 108.965 42.4548 108.872 42.4558V42.4543H102.66C102.885 40.8113 103.001 39.1338 103.001 37.4293C103.001 17.0778 86.4764 0.57959 66.0927 0.57959C45.7091 0.57959 29.1848 17.0778 29.1848 37.4293C29.1848 39.3496 29.332 41.2356 29.6156 43.0767C27.8603 42.6695 26.0313 42.4543 24.152 42.4543C10.8717 42.4543 0.105957 53.2031 0.105957 66.4624C0.105957 79.7217 10.8717 90.4706 24.152 90.4706C24.2457 90.4706 24.3394 90.47 24.4328 90.469L24.4316 90.4706H108.872V90.469Z"/>
</mask>
<path fill-rule="evenodd" clip-rule="evenodd" d="M108.872 90.469C108.965 90.47 109.059 90.4706 109.152 90.4706C122.432 90.4706 133.198 79.7217 133.198 66.4624C133.198 53.2031 122.432 42.4543 109.152 42.4543C109.059 42.4543 108.965 42.4548 108.872 42.4558V42.4543H102.66C102.885 40.8113 103.001 39.1338 103.001 37.4293C103.001 17.0778 86.4764 0.57959 66.0927 0.57959C45.7091 0.57959 29.1848 17.0778 29.1848 37.4293C29.1848 39.3496 29.332 41.2356 29.6156 43.0767C27.8603 42.6695 26.0313 42.4543 24.152 42.4543C10.8717 42.4543 0.105957 53.2031 0.105957 66.4624C0.105957 79.7217 10.8717 90.4706 24.152 90.4706C24.2457 90.4706 24.3394 90.47 24.4328 90.469L24.4316 90.4706H108.872V90.469Z" fill="url(#paint0_linear_4_5176)"/>
<path d="M108.872 90.469L108.895 88.4691C108.361 88.463 107.846 88.671 107.466 89.0467C107.086 89.4224 106.872 89.9346 106.872 90.469H108.872ZM108.872 42.4558H106.872C106.872 42.9902 107.086 43.5024 107.466 43.8781C107.846 44.2538 108.361 44.4618 108.895 44.4557L108.872 42.4558ZM108.872 42.4543H110.872C110.872 41.3497 109.977 40.4543 108.872 40.4543V42.4543ZM102.66 42.4543L100.679 42.1836C100.601 42.756 100.774 43.3341 101.154 43.7693C101.533 44.2045 102.083 44.4543 102.66 44.4543V42.4543ZM29.6156 43.0767L29.1636 45.0249C29.8102 45.1749 30.4891 44.9944 30.9757 44.543C31.4623 44.0916 31.6933 43.4282 31.5922 42.7722L29.6156 43.0767ZM24.4328 90.469L26.0018 91.7092C26.4798 91.1045 26.5678 90.2789 26.2279 89.5871C25.888 88.8952 25.1808 88.4603 24.41 88.4691L24.4328 90.469ZM24.4316 90.4706L22.8626 89.2303C22.3871 89.8318 22.2974 90.6521 22.6315 91.3422C22.9656 92.0322 23.6649 92.4706 24.4316 92.4706V90.4706ZM108.872 90.4706V92.4706C109.977 92.4706 110.872 91.5751 110.872 90.4706H108.872ZM108.85 92.4688C108.95 92.47 109.051 92.4706 109.152 92.4706V88.4706C109.066 88.4706 108.981 88.4701 108.895 88.4691L108.85 92.4688ZM109.152 92.4706C123.534 92.4706 135.198 80.8293 135.198 66.4624H131.198C131.198 78.6142 121.331 88.4706 109.152 88.4706V92.4706ZM135.198 66.4624C135.198 52.0955 123.534 40.4543 109.152 40.4543V44.4543C121.331 44.4543 131.198 54.3106 131.198 66.4624H135.198ZM109.152 40.4543C109.051 40.4543 108.95 40.4548 108.85 40.456L108.895 44.4557C108.981 44.4547 109.066 44.4543 109.152 44.4543V40.4543ZM106.872 42.4543V42.4558H110.872V42.4543H106.872ZM102.66 44.4543H108.872V40.4543H102.66V44.4543ZM104.642 42.7249C104.879 40.9924 105.001 39.2246 105.001 37.4293H101.001C101.001 39.043 100.891 40.6301 100.679 42.1836L104.642 42.7249ZM105.001 37.4293C105.001 15.9702 87.578 -1.42041 66.0927 -1.42041V2.57959C85.3748 2.57959 101.001 18.1853 101.001 37.4293H105.001ZM66.0927 -1.42041C44.6075 -1.42041 27.1848 15.9702 27.1848 37.4293H31.1848C31.1848 18.1853 46.8107 2.57959 66.0927 2.57959V-1.42041ZM27.1848 37.4293C27.1848 39.4519 27.3398 41.4397 27.6389 43.3812L31.5922 42.7722C31.3241 41.0315 31.1848 39.2473 31.1848 37.4293H27.1848ZM30.0675 41.1284C28.1651 40.6871 26.1845 40.4543 24.152 40.4543V44.4543C25.8782 44.4543 27.5555 44.6519 29.1636 45.0249L30.0675 41.1284ZM24.152 40.4543C9.77015 40.4543 -1.89404 52.0955 -1.89404 66.4624H2.10596C2.10596 54.3106 11.9733 44.4543 24.152 44.4543V40.4543ZM-1.89404 66.4624C-1.89404 80.8293 9.77015 92.4706 24.152 92.4706V88.4706C11.9733 88.4706 2.10596 78.6142 2.10596 66.4624H-1.89404ZM24.152 92.4706C24.2533 92.4706 24.3546 92.47 24.4557 92.4688L24.41 88.4691C24.3241 88.4701 24.2382 88.4706 24.152 88.4706V92.4706ZM26.0006 91.7108L26.0018 91.7092L22.8638 89.2287L22.8626 89.2303L26.0006 91.7108ZM108.872 88.4706H24.4316V92.4706H108.872V88.4706ZM106.872 90.469V90.4706H110.872V90.469H106.872Z" fill="url(#paint1_linear_4_5176)" mask="url(#path-1-inside-1_4_5176)"/>
</g>
<g filter="url(#filter1_b_4_5176)">
<mask id="path-3-inside-2_4_5176" fill="white">
<path fill-rule="evenodd" clip-rule="evenodd" d="M152.526 65.5416C152.593 65.5424 152.661 65.5428 152.728 65.5428C162.326 65.5428 170.106 57.7747 170.106 48.1923C170.106 38.61 162.326 30.8419 152.728 30.8419C152.661 30.8419 152.593 30.8423 152.526 30.8431V30.8419H148.037C148.199 29.6546 148.283 28.4423 148.283 27.2105C148.283 12.5026 136.341 0.57959 121.61 0.57959C106.879 0.57959 94.9367 12.5026 94.9367 27.2105C94.9367 28.5983 95.0431 29.9612 95.248 31.2918C93.9795 30.9975 92.6577 30.8419 91.2995 30.8419C81.7019 30.8419 73.9216 38.61 73.9216 48.1923C73.9216 57.7747 81.7019 65.5428 91.2995 65.5428C91.3672 65.5428 91.4348 65.5424 91.5024 65.5416L91.5015 65.5428H152.526V65.5416Z"/>
</mask>
<path fill-rule="evenodd" clip-rule="evenodd" d="M152.526 65.5416C152.593 65.5424 152.661 65.5428 152.728 65.5428C162.326 65.5428 170.106 57.7747 170.106 48.1923C170.106 38.61 162.326 30.8419 152.728 30.8419C152.661 30.8419 152.593 30.8423 152.526 30.8431V30.8419H148.037C148.199 29.6546 148.283 28.4423 148.283 27.2105C148.283 12.5026 136.341 0.57959 121.61 0.57959C106.879 0.57959 94.9367 12.5026 94.9367 27.2105C94.9367 28.5983 95.0431 29.9612 95.248 31.2918C93.9795 30.9975 92.6577 30.8419 91.2995 30.8419C81.7019 30.8419 73.9216 38.61 73.9216 48.1923C73.9216 57.7747 81.7019 65.5428 91.2995 65.5428C91.3672 65.5428 91.4348 65.5424 91.5024 65.5416L91.5015 65.5428H152.526V65.5416Z" fill="url(#paint2_linear_4_5176)"/>
<path d="M152.526 65.5416L152.549 63.5418C152.014 63.5357 151.5 63.7437 151.12 64.1194C150.74 64.4951 150.526 65.0073 150.526 65.5416H152.526ZM152.526 30.8431H150.526C150.526 31.3774 150.74 31.8896 151.12 32.2653C151.5 32.641 152.014 32.849 152.549 32.8429L152.526 30.8431ZM152.526 30.8419H154.526C154.526 29.7374 153.631 28.8419 152.526 28.8419V30.8419ZM148.037 30.8419L146.055 30.5713C145.977 31.1436 146.15 31.7218 146.53 32.157C146.91 32.5922 147.459 32.8419 148.037 32.8419V30.8419ZM95.248 31.2918L94.7961 33.24C95.4426 33.39 96.1215 33.2095 96.6081 32.7581C97.0948 32.3067 97.3258 31.6433 97.2247 30.9873L95.248 31.2918ZM91.5024 65.5416L93.0722 66.7809C93.5497 66.1761 93.6372 65.3507 93.2972 64.6592C92.9572 63.9676 92.2501 63.533 91.4796 63.5417L91.5024 65.5416ZM91.5015 65.5428L89.9317 64.3035C89.4568 64.9051 89.3674 65.7252 89.7017 66.415C90.0359 67.1047 90.735 67.5428 91.5015 67.5428V65.5428ZM152.526 65.5428V67.5428C153.631 67.5428 154.526 66.6473 154.526 65.5428H152.526ZM152.503 67.5415C152.578 67.5423 152.653 67.5428 152.728 67.5428V63.5428C152.668 63.5428 152.608 63.5424 152.549 63.5418L152.503 67.5415ZM152.728 67.5428C163.427 67.5428 172.106 58.8823 172.106 48.1923H168.106C168.106 56.6672 161.224 63.5428 152.728 63.5428V67.5428ZM172.106 48.1923C172.106 37.5024 163.427 28.8419 152.728 28.8419V32.8419C161.224 32.8419 168.106 39.7175 168.106 48.1923H172.106ZM152.728 28.8419C152.653 28.8419 152.578 28.8423 152.503 28.8432L152.549 32.8429C152.608 32.8423 152.668 32.8419 152.728 32.8419V28.8419ZM150.526 30.8419V30.8431H154.526V30.8419H150.526ZM148.037 32.8419H152.526V28.8419H148.037V32.8419ZM150.018 31.1125C150.193 29.8357 150.283 28.533 150.283 27.2105H146.283C146.283 28.3515 146.205 29.4734 146.055 30.5713L150.018 31.1125ZM150.283 27.2105C150.283 11.3951 137.442 -1.42041 121.61 -1.42041V2.57959C135.239 2.57959 146.283 13.6102 146.283 27.2105H150.283ZM121.61 -1.42041C105.777 -1.42041 92.9367 11.3951 92.9367 27.2105H96.9367C96.9367 13.6102 107.98 2.57959 121.61 2.57959V-1.42041ZM92.9367 27.2105C92.9367 28.7006 93.0509 30.1653 93.2713 31.5962L97.2247 30.9873C97.0352 29.7572 96.9367 28.496 96.9367 27.2105H92.9367ZM95.7 29.3435C94.2843 29.0151 92.8109 28.8419 91.2995 28.8419V32.8419C92.5045 32.8419 93.6747 32.9799 94.7961 33.24L95.7 29.3435ZM91.2995 28.8419C80.6004 28.8419 71.9216 37.5024 71.9216 48.1923H75.9216C75.9216 39.7175 82.8035 32.8419 91.2995 32.8419V28.8419ZM71.9216 48.1923C71.9216 58.8823 80.6004 67.5428 91.2995 67.5428V63.5428C82.8035 63.5428 75.9216 56.6672 75.9216 48.1923H71.9216ZM91.2995 67.5428C91.3749 67.5428 91.4501 67.5423 91.5252 67.5415L91.4796 63.5417C91.4196 63.5424 91.3595 63.5428 91.2995 63.5428V67.5428ZM93.0712 66.7821L93.0722 66.7809L89.9326 64.3023L89.9317 64.3035L93.0712 66.7821ZM152.526 63.5428H91.5015V67.5428H152.526V63.5428ZM150.526 65.5416V65.5428H154.526V65.5416H150.526Z" fill="url(#paint3_linear_4_5176)" mask="url(#path-3-inside-2_4_5176)"/>
</g>
<g filter="url(#filter2_b_4_5176)">
<path d="M58.4834 77.3624L59.1395 86.537C59.4584 90.9945 55.2045 94.3887 50.9272 93.0897C46.6498 91.7907 45.0095 86.6064 47.7603 83.0811L53.4223 75.8253C55.0192 73.7788 58.2983 74.7747 58.4834 77.3624Z" fill="url(#paint4_linear_4_5176)" stroke="url(#paint5_linear_4_5176)" stroke-width="2"/>
<path d="M90.6423 77.3624L91.2985 86.537C91.6173 90.9945 87.3634 94.3887 83.0861 93.0897C78.8088 91.7907 77.1684 86.6064 79.9193 83.0811L85.5812 75.8253C87.1781 73.7788 90.4572 74.7747 90.6423 77.3624Z" fill="url(#paint6_linear_4_5176)" stroke="url(#paint7_linear_4_5176)" stroke-width="2"/>
<path d="M122.801 77.3624L123.457 86.537C123.776 90.9945 119.522 94.3887 115.245 93.0897C110.967 91.7907 109.327 86.6064 112.078 83.0811L117.74 75.8253C119.337 73.7788 122.616 74.7747 122.801 77.3624Z" fill="url(#paint8_linear_4_5176)" stroke="url(#paint9_linear_4_5176)" stroke-width="2"/>
</g>
<g filter="url(#filter3_b_4_5176)">
<path d="M66.9687 102.778L67.6249 111.952C67.9437 116.41 63.6898 119.804 59.4125 118.505C55.1352 117.206 53.4948 112.022 56.2457 108.496L61.9076 101.241C63.5045 99.194 66.7836 100.19 66.9687 102.778Z" fill="url(#paint10_linear_4_5176)" stroke="url(#paint11_linear_4_5176)" stroke-width="2"/>
<path d="M94.1389 102.778L94.7951 111.952C95.1139 116.41 90.86 119.804 86.5827 118.505C82.3053 117.206 80.665 112.022 83.4158 108.496L89.0778 101.241C90.6747 99.194 93.9538 100.19 94.1389 102.778Z" fill="url(#paint12_linear_4_5176)" stroke="url(#paint13_linear_4_5176)" stroke-width="2"/>
</g>
<defs>
<filter id="filter0_b_4_5176" x="-13.894" y="-13.4204" width="161.092" height="117.891" filterUnits="userSpaceOnUse" color-interpolation-filters="sRGB">
<feFlood flood-opacity="0" result="BackgroundImageFix"/>
<feGaussianBlur in="BackgroundImageFix" stdDeviation="7"/>
<feComposite in2="SourceAlpha" operator="in" result="effect1_backgroundBlur_4_5176"/>
<feBlend mode="normal" in="SourceGraphic" in2="effect1_backgroundBlur_4_5176" result="shape"/>
</filter>
<filter id="filter1_b_4_5176" x="59.9216" y="-13.4204" width="124.184" height="92.9632" filterUnits="userSpaceOnUse" color-interpolation-filters="sRGB">
<feFlood flood-opacity="0" result="BackgroundImageFix"/>
<feGaussianBlur in="BackgroundImageFix" stdDeviation="7"/>
<feComposite in2="SourceAlpha" operator="in" result="effect1_backgroundBlur_4_5176"/>
<feBlend mode="normal" in="SourceGraphic" in2="effect1_backgroundBlur_4_5176" result="shape"/>
</filter>
<filter id="filter2_b_4_5176" x="31.4075" y="59.7285" width="107.067" height="48.6419" filterUnits="userSpaceOnUse" color-interpolation-filters="sRGB">
<feFlood flood-opacity="0" result="BackgroundImageFix"/>
<feGaussianBlur in="BackgroundImageFix" stdDeviation="7"/>
<feComposite in2="SourceAlpha" operator="in" result="effect1_backgroundBlur_4_5176"/>
<feBlend mode="normal" in="SourceGraphic" in2="effect1_backgroundBlur_4_5176" result="shape"/>
</filter>
<filter id="filter3_b_4_5176" x="39.8928" y="85.1438" width="69.9194" height="48.6419" filterUnits="userSpaceOnUse" color-interpolation-filters="sRGB">
<feFlood flood-opacity="0" result="BackgroundImageFix"/>
<feGaussianBlur in="BackgroundImageFix" stdDeviation="7"/>
<feComposite in2="SourceAlpha" operator="in" result="effect1_backgroundBlur_4_5176"/>
<feBlend mode="normal" in="SourceGraphic" in2="effect1_backgroundBlur_4_5176" result="shape"/>
</filter>
<linearGradient id="paint0_linear_4_5176" x1="66.652" y1="-28.1744" x2="66.652" y2="103.033" gradientUnits="userSpaceOnUse">
<stop stop-color="white"/>
<stop offset="1" stop-color="white" stop-opacity="0"/>
</linearGradient>
<linearGradient id="paint1_linear_4_5176" x1="66.652" y1="0.57959" x2="66.652" y2="90.4706" gradientUnits="userSpaceOnUse">
<stop stop-color="white"/>
<stop offset="1" stop-color="white" stop-opacity="0"/>
</linearGradient>
<linearGradient id="paint2_linear_4_5176" x1="126.487" y1="2.53374" x2="126.487" y2="72.8832" gradientUnits="userSpaceOnUse">
<stop stop-color="white"/>
<stop offset="1" stop-color="white" stop-opacity="0"/>
</linearGradient>
<linearGradient id="paint3_linear_4_5176" x1="122.014" y1="0.57959" x2="122.014" y2="65.5428" gradientUnits="userSpaceOnUse">
<stop stop-color="white"/>
<stop offset="1" stop-color="white" stop-opacity="0"/>
</linearGradient>
<linearGradient id="paint4_linear_4_5176" x1="58.7699" y1="67.3471" x2="50.6592" y2="94.0534" gradientUnits="userSpaceOnUse">
<stop stop-color="#138EFF"/>
<stop offset="1" stop-color="#00E0FF"/>
</linearGradient>
<linearGradient id="paint5_linear_4_5176" x1="58.7699" y1="67.3471" x2="50.6592" y2="94.0534" gradientUnits="userSpaceOnUse">
<stop stop-color="white"/>
<stop offset="1" stop-color="white" stop-opacity="0"/>
</linearGradient>
<linearGradient id="paint6_linear_4_5176" x1="90.9289" y1="67.3471" x2="82.8181" y2="94.0534" gradientUnits="userSpaceOnUse">
<stop stop-color="#138EFF"/>
<stop offset="1" stop-color="#00E0FF"/>
</linearGradient>
<linearGradient id="paint7_linear_4_5176" x1="90.9289" y1="67.3471" x2="82.8181" y2="94.0534" gradientUnits="userSpaceOnUse">
<stop stop-color="white"/>
<stop offset="1" stop-color="white" stop-opacity="0"/>
</linearGradient>
<linearGradient id="paint8_linear_4_5176" x1="123.088" y1="67.3471" x2="114.977" y2="94.0534" gradientUnits="userSpaceOnUse">
<stop stop-color="#138EFF"/>
<stop offset="1" stop-color="#00E0FF"/>
</linearGradient>
<linearGradient id="paint9_linear_4_5176" x1="123.088" y1="67.3471" x2="114.977" y2="94.0534" gradientUnits="userSpaceOnUse">
<stop stop-color="white"/>
<stop offset="1" stop-color="white" stop-opacity="0"/>
</linearGradient>
<linearGradient id="paint10_linear_4_5176" x1="67.2553" y1="92.7624" x2="59.1445" y2="119.469" gradientUnits="userSpaceOnUse">
<stop stop-color="#138EFF"/>
<stop offset="1" stop-color="#00E0FF"/>
</linearGradient>
<linearGradient id="paint11_linear_4_5176" x1="67.2553" y1="92.7624" x2="59.1445" y2="119.469" gradientUnits="userSpaceOnUse">
<stop stop-color="white"/>
<stop offset="1" stop-color="white" stop-opacity="0"/>
</linearGradient>
<linearGradient id="paint12_linear_4_5176" x1="94.4254" y1="92.7624" x2="86.3147" y2="119.469" gradientUnits="userSpaceOnUse">
<stop stop-color="#138EFF"/>
<stop offset="1" stop-color="#00E0FF"/>
</linearGradient>
<linearGradient id="paint13_linear_4_5176" x1="94.4254" y1="92.7624" x2="86.3147" y2="119.469" gradientUnits="userSpaceOnUse">
<stop stop-color="white"/>
<stop offset="1" stop-color="white" stop-opacity="0"/>
</linearGradient>
</defs>
</svg>
