<svg width="119" height="85" viewBox="0 0 119 85" fill="none" xmlns="http://www.w3.org/2000/svg">
<g filter="url(#filter0_b_104_1412)">
<mask id="path-1-inside-1_104_1412" fill="white">
<path fill-rule="evenodd" clip-rule="evenodd" d="M75.6321 62.6045C75.6968 62.6052 75.7616 62.6056 75.8265 62.6056C85.0611 62.6056 92.5472 55.1194 92.5472 45.8848C92.5472 36.6502 85.0611 29.1641 75.8265 29.1641C75.7616 29.1641 75.6968 29.1645 75.6321 29.1652V29.1641H71.3125C71.4686 28.0198 71.5491 26.8515 71.5491 25.6644C71.5491 11.4903 60.0588 2.04166e-06 45.8848 2.04166e-06C31.7107 2.04166e-06 20.2204 11.4903 20.2204 25.6644C20.2204 27.0018 20.3227 28.3153 20.5199 29.5976C19.2993 29.314 18.0275 29.1641 16.7207 29.1641C7.48611 29.1641 -2.45893e-05 36.6502 -2.45893e-05 45.8848C-2.45893e-05 55.1194 7.48611 62.6056 16.7207 62.6056C16.7859 62.6056 16.851 62.6052 16.916 62.6045L16.9151 62.6056H75.6321V62.6045Z"/>
</mask>
<path fill-rule="evenodd" clip-rule="evenodd" d="M75.6321 62.6045C75.6968 62.6052 75.7616 62.6056 75.8265 62.6056C85.0611 62.6056 92.5472 55.1194 92.5472 45.8848C92.5472 36.6502 85.0611 29.1641 75.8265 29.1641C75.7616 29.1641 75.6968 29.1645 75.6321 29.1652V29.1641H71.3125C71.4686 28.0198 71.5491 26.8515 71.5491 25.6644C71.5491 11.4903 60.0588 2.04166e-06 45.8848 2.04166e-06C31.7107 2.04166e-06 20.2204 11.4903 20.2204 25.6644C20.2204 27.0018 20.3227 28.3153 20.5199 29.5976C19.2993 29.314 18.0275 29.1641 16.7207 29.1641C7.48611 29.1641 -2.45893e-05 36.6502 -2.45893e-05 45.8848C-2.45893e-05 55.1194 7.48611 62.6056 16.7207 62.6056C16.7859 62.6056 16.851 62.6052 16.916 62.6045L16.9151 62.6056H75.6321V62.6045Z" fill="url(#paint0_linear_104_1412)"/>
<path d="M75.6322 62.6045L75.6549 60.6046C75.1206 60.5985 74.606 60.8065 74.226 61.1822C73.846 61.5579 73.6322 62.0701 73.6322 62.6045H75.6322ZM75.6322 29.1652H73.6322C73.6322 29.6996 73.846 30.2117 74.226 30.5874C74.606 30.9631 75.1206 31.1711 75.6549 31.1651L75.6322 29.1652ZM75.6322 29.1641H77.6322C77.6322 28.0595 76.7367 27.1641 75.6322 27.1641V29.1641ZM71.3126 29.1641L69.3309 28.8939C69.2529 29.4661 69.426 30.0442 69.8058 30.4793C70.1856 30.9144 70.735 31.1641 71.3126 31.1641V29.1641ZM20.5199 29.5976L20.0673 31.5457C20.7138 31.6959 21.3928 31.5156 21.8796 31.0643C22.3664 30.613 22.5975 29.9496 22.4966 29.2936L20.5199 29.5976ZM16.916 62.6045L18.4866 63.8427C18.9636 63.2377 19.0506 62.4126 18.7105 61.7214C18.3704 61.0302 17.6634 60.5958 16.8931 60.6046L16.916 62.6045ZM16.9151 62.6056L15.3445 61.3673C14.8701 61.969 14.7812 62.7889 15.1156 63.4784C15.45 64.1678 16.1489 64.6056 16.9151 64.6056V62.6056ZM75.6322 62.6056V64.6056C76.7367 64.6056 77.6322 63.7101 77.6322 62.6056H75.6322ZM75.6094 64.6043C75.6817 64.6052 75.754 64.6056 75.8265 64.6056V60.6056C75.7692 60.6056 75.712 60.6052 75.6549 60.6046L75.6094 64.6043ZM75.8265 64.6056C86.1657 64.6056 94.5473 56.224 94.5473 45.8848H90.5473C90.5473 54.0149 83.9566 60.6056 75.8265 60.6056V64.6056ZM94.5473 45.8848C94.5473 35.5456 86.1657 27.1641 75.8265 27.1641V31.1641C83.9566 31.1641 90.5473 37.7548 90.5473 45.8848H94.5473ZM75.8265 27.1641C75.754 27.1641 75.6817 27.1645 75.6094 27.1653L75.6549 31.1651C75.712 31.1644 75.7692 31.1641 75.8265 31.1641V27.1641ZM73.6322 29.1641V29.1652H77.6322V29.1641H73.6322ZM71.3126 31.1641H75.6322V27.1641H71.3126V31.1641ZM73.2942 29.4343C73.4624 28.2007 73.5492 26.9421 73.5492 25.6644H69.5492C69.5492 26.7609 69.4747 27.8389 69.3309 28.8939L73.2942 29.4343ZM73.5492 25.6644C73.5492 10.3858 61.1634 -2 45.8848 -2V2C58.9543 2 69.5492 12.5949 69.5492 25.6644H73.5492ZM45.8848 -2C30.6062 -2 18.2204 10.3858 18.2204 25.6644H22.2204C22.2204 12.5949 32.8153 2 45.8848 2V-2ZM18.2204 25.6644C18.2204 27.104 18.3305 28.5191 18.5431 29.9016L22.4966 29.2936C22.3149 28.1116 22.2204 26.8997 22.2204 25.6644H18.2204ZM20.9725 27.6495C19.6046 27.3317 18.181 27.1641 16.7207 27.1641V31.1641C17.8741 31.1641 18.9941 31.2963 20.0673 31.5457L20.9725 27.6495ZM16.7207 27.1641C6.38156 27.1641 -2 35.5456 -2 45.8848H2C2 37.7548 8.5907 31.1641 16.7207 31.1641V27.1641ZM-2 45.8848C-2 56.224 6.38156 64.6056 16.7207 64.6056V60.6056C8.5907 60.6056 2 54.0149 2 45.8848H-2ZM16.7207 64.6056C16.7936 64.6056 16.8663 64.6052 16.9389 64.6043L16.8931 60.6046C16.8357 60.6052 16.7783 60.6056 16.7207 60.6056V64.6056ZM18.4857 63.8438L18.4866 63.8427L15.3454 61.3662L15.3445 61.3673L18.4857 63.8438ZM75.6322 60.6056H16.9151V64.6056H75.6322V60.6056ZM73.6322 62.6045V62.6056H77.6322V62.6045H73.6322Z" fill="url(#paint1_linear_104_1412)" mask="url(#path-1-inside-1_104_1412)"/>
</g>
<g filter="url(#filter1_b_104_1412)">
<mask id="path-3-inside-2_104_1412" fill="white">
<path fill-rule="evenodd" clip-rule="evenodd" d="M105.987 45.2435C106.034 45.2441 106.081 45.2443 106.128 45.2443C112.801 45.2443 118.212 39.8342 118.212 33.1604C118.212 26.4867 112.801 21.0765 106.128 21.0765C106.081 21.0765 106.034 21.0768 105.987 21.0773V21.0765H102.865C102.978 20.2496 103.036 19.4053 103.036 18.5474C103.036 8.30395 94.7325 2.04166e-06 84.4891 2.04166e-06C74.2457 2.04166e-06 65.9417 8.30395 65.9417 18.5474C65.9417 19.5139 66.0157 20.4632 66.1582 21.3898C65.2761 21.1849 64.3569 21.0765 63.4125 21.0765C56.7387 21.0765 51.3286 26.4867 51.3286 33.1604C51.3286 39.8342 56.7387 45.2443 63.4125 45.2443C63.4596 45.2443 63.5066 45.2441 63.5536 45.2435L63.553 45.2443H105.987V45.2435Z"/>
</mask>
<path fill-rule="evenodd" clip-rule="evenodd" d="M105.987 45.2435C106.034 45.2441 106.081 45.2443 106.128 45.2443C112.801 45.2443 118.212 39.8342 118.212 33.1604C118.212 26.4867 112.801 21.0765 106.128 21.0765C106.081 21.0765 106.034 21.0768 105.987 21.0773V21.0765H102.865C102.978 20.2496 103.036 19.4053 103.036 18.5474C103.036 8.30395 94.7325 2.04166e-06 84.4891 2.04166e-06C74.2457 2.04166e-06 65.9417 8.30395 65.9417 18.5474C65.9417 19.5139 66.0157 20.4632 66.1582 21.3898C65.2761 21.1849 64.3569 21.0765 63.4125 21.0765C56.7387 21.0765 51.3286 26.4867 51.3286 33.1604C51.3286 39.8342 56.7387 45.2443 63.4125 45.2443C63.4596 45.2443 63.5066 45.2441 63.5536 45.2435L63.553 45.2443H105.987V45.2435Z" fill="url(#paint2_linear_104_1412)"/>
<path d="M105.987 45.2435L106.01 43.2437C105.476 43.2376 104.961 43.4456 104.581 43.8213C104.201 44.197 103.987 44.7091 103.987 45.2435H105.987ZM105.987 21.0773H103.987C103.987 21.6117 104.201 22.1239 104.581 22.4996C104.961 22.8753 105.476 23.0833 106.01 23.0772L105.987 21.0773ZM105.987 21.0765H107.987C107.987 19.972 107.092 19.0765 105.987 19.0765V21.0765ZM102.865 21.0765L100.884 20.8063C100.806 21.3786 100.979 21.9567 101.359 22.3918C101.739 22.8269 102.288 23.0765 102.865 23.0765V21.0765ZM66.1582 21.3898L65.7056 23.3379C66.3521 23.4882 67.0311 23.3078 67.5179 22.8565C68.0047 22.4053 68.2359 21.7419 68.135 21.0858L66.1582 21.3898ZM63.5536 45.2435L65.1256 46.48C65.6016 45.8748 65.688 45.0501 65.3476 44.3594C65.0072 43.6688 64.3006 43.2348 63.5307 43.2437L63.5536 45.2435ZM63.553 45.2443L61.981 44.0079C61.5075 44.6098 61.4194 45.4293 61.754 46.1181C62.0886 46.807 62.7872 47.2443 63.553 47.2443V45.2443ZM105.987 45.2443V47.2443C107.092 47.2443 107.987 46.3489 107.987 45.2443H105.987ZM105.964 47.2434C106.019 47.244 106.073 47.2443 106.128 47.2443V43.2443C106.088 43.2443 106.049 43.2441 106.01 43.2437L105.964 47.2434ZM106.128 47.2443C113.906 47.2443 120.212 40.9388 120.212 33.1604H116.212C116.212 38.7296 111.697 43.2443 106.128 43.2443V47.2443ZM120.212 33.1604C120.212 25.3821 113.906 19.0765 106.128 19.0765V23.0765C111.697 23.0765 116.212 27.5913 116.212 33.1604H120.212ZM106.128 19.0765C106.073 19.0765 106.019 19.0769 105.964 19.0775L106.01 23.0772C106.049 23.0768 106.088 23.0765 106.128 23.0765V19.0765ZM103.987 21.0765V21.0773H107.987V21.0765H103.987ZM102.865 23.0765H105.987V19.0765H102.865V23.0765ZM104.847 21.3467C104.972 20.4305 105.036 19.4959 105.036 18.5474H101.036C101.036 19.3147 100.984 20.0687 100.884 20.8063L104.847 21.3467ZM105.036 18.5474C105.036 7.19938 95.8371 -2 84.4891 -2V2C93.628 2 101.036 9.40851 101.036 18.5474H105.036ZM84.4891 -2C73.1411 -2 63.9417 7.19938 63.9417 18.5474H67.9417C67.9417 9.40851 75.3503 2 84.4891 2V-2ZM63.9417 18.5474C63.9417 19.6161 64.0235 20.667 64.1814 21.6939L68.135 21.0858C68.0079 20.2594 67.9417 19.4118 67.9417 18.5474H63.9417ZM66.6108 19.4417C65.5814 19.2025 64.5104 19.0765 63.4125 19.0765V23.0765C64.2035 23.0765 64.9708 23.1672 65.7056 23.3379L66.6108 19.4417ZM63.4125 19.0765C55.6342 19.0765 49.3286 25.3821 49.3286 33.1604H53.3286C53.3286 27.5913 57.8433 23.0765 63.4125 23.0765V19.0765ZM49.3286 33.1604C49.3286 40.9388 55.6342 47.2443 63.4125 47.2443V43.2443C57.8433 43.2443 53.3286 38.7296 53.3286 33.1604H49.3286ZM63.4125 47.2443C63.4673 47.2443 63.522 47.244 63.5765 47.2434L63.5307 43.2437C63.4913 43.2441 63.4519 43.2443 63.4125 43.2443V47.2443ZM65.125 46.4808L65.1256 46.48L61.9816 44.0071L61.981 44.0079L65.125 46.4808ZM105.987 43.2443H63.553V47.2443H105.987V43.2443ZM103.987 45.2435V45.2443H107.987V45.2435H103.987Z" fill="url(#paint3_linear_104_1412)" mask="url(#path-3-inside-2_104_1412)"/>
</g>
<circle cx="87" cy="54" r="5.5" fill="#D9D9D9" stroke="url(#paint4_linear_104_1412)"/>
<circle cx="64" cy="54" r="5.5" fill="#D9D9D9" stroke="url(#paint5_linear_104_1412)"/>
<circle cx="41" cy="54" r="5.5" fill="#D9D9D9" stroke="url(#paint6_linear_104_1412)"/>
<circle cx="53" cy="71" r="5.5" fill="#D9D9D9" stroke="url(#paint7_linear_104_1412)"/>
<circle cx="76" cy="71" r="5.5" fill="#D9D9D9" stroke="url(#paint8_linear_104_1412)"/>
<defs>
<filter id="filter0_b_104_1412" x="-14" y="-14" width="120.547" height="90.6055" filterUnits="userSpaceOnUse" color-interpolation-filters="sRGB">
<feFlood flood-opacity="0" result="BackgroundImageFix"/>
<feGaussianBlur in="BackgroundImageFix" stdDeviation="7"/>
<feComposite in2="SourceAlpha" operator="in" result="effect1_backgroundBlur_104_1412"/>
<feBlend mode="normal" in="SourceGraphic" in2="effect1_backgroundBlur_104_1412" result="shape"/>
</filter>
<filter id="filter1_b_104_1412" x="37.3286" y="-14" width="94.8828" height="73.2441" filterUnits="userSpaceOnUse" color-interpolation-filters="sRGB">
<feFlood flood-opacity="0" result="BackgroundImageFix"/>
<feGaussianBlur in="BackgroundImageFix" stdDeviation="7"/>
<feComposite in2="SourceAlpha" operator="in" result="effect1_backgroundBlur_104_1412"/>
<feBlend mode="normal" in="SourceGraphic" in2="effect1_backgroundBlur_104_1412" result="shape"/>
</filter>
<linearGradient id="paint0_linear_104_1412" x1="46.2737" y1="-20.026" x2="46.2737" y2="71.3548" gradientUnits="userSpaceOnUse">
<stop stop-color="white"/>
<stop offset="1" stop-color="white" stop-opacity="0"/>
</linearGradient>
<linearGradient id="paint1_linear_104_1412" x1="46.2737" y1="0" x2="46.2737" y2="62.6056" gradientUnits="userSpaceOnUse">
<stop stop-color="white"/>
<stop offset="1" stop-color="white" stop-opacity="0"/>
</linearGradient>
<linearGradient id="paint2_linear_104_1412" x1="87.8809" y1="1.36099" x2="87.8809" y2="50.3567" gradientUnits="userSpaceOnUse">
<stop stop-color="white"/>
<stop offset="1" stop-color="white" stop-opacity="0"/>
</linearGradient>
<linearGradient id="paint3_linear_104_1412" x1="84.7701" y1="0" x2="84.7701" y2="45.2444" gradientUnits="userSpaceOnUse">
<stop stop-color="white"/>
<stop offset="1" stop-color="white" stop-opacity="0"/>
</linearGradient>
<linearGradient id="paint4_linear_104_1412" x1="86.9998" y1="46.9236" x2="86.9998" y2="60.0002" gradientUnits="userSpaceOnUse">
<stop stop-color="white"/>
<stop offset="1" stop-color="white" stop-opacity="0"/>
</linearGradient>
<linearGradient id="paint5_linear_104_1412" x1="63.9998" y1="46.9236" x2="63.9998" y2="60.0002" gradientUnits="userSpaceOnUse">
<stop stop-color="white"/>
<stop offset="1" stop-color="white" stop-opacity="0"/>
</linearGradient>
<linearGradient id="paint6_linear_104_1412" x1="40.9998" y1="46.9236" x2="40.9998" y2="60.0002" gradientUnits="userSpaceOnUse">
<stop stop-color="white"/>
<stop offset="1" stop-color="white" stop-opacity="0"/>
</linearGradient>
<linearGradient id="paint7_linear_104_1412" x1="52.9998" y1="63.9236" x2="52.9998" y2="77.0002" gradientUnits="userSpaceOnUse">
<stop stop-color="white"/>
<stop offset="1" stop-color="white" stop-opacity="0"/>
</linearGradient>
<linearGradient id="paint8_linear_104_1412" x1="75.9998" y1="63.9236" x2="75.9998" y2="77.0002" gradientUnits="userSpaceOnUse">
<stop stop-color="white"/>
<stop offset="1" stop-color="white" stop-opacity="0"/>
</linearGradient>
</defs>
</svg>
