<svg width="143" height="130" viewBox="0 0 143 130" fill="none" xmlns="http://www.w3.org/2000/svg">
<path d="M87.856 46.6919C87.856 70.2488 68.7671 89.3448 45.2205 89.3448C21.674 89.3448 2.58508 70.2488 2.58508 46.6919C2.58508 23.135 21.674 4.0391 45.2205 4.0391C68.7671 4.0391 87.856 23.135 87.856 46.6919Z" fill="url(#paint0_linear_4_5166)" stroke="url(#paint1_linear_4_5166)" stroke-width="2"/>
<mask id="mask0_4_5166" style="mask-type:alpha" maskUnits="userSpaceOnUse" x="1" y="27" width="88" height="64">
<path d="M88.856 46.6918C88.856 70.8006 69.3197 90.3446 45.2205 90.3446C21.1213 90.3446 1.58508 70.8006 1.58508 46.6918C1.58508 22.5831 17.7932 28.1949 41.8924 28.1949C65.9916 28.1949 88.856 22.5831 88.856 46.6918Z" fill="url(#paint2_linear_4_5166)"/>
</mask>
<g mask="url(#mask0_4_5166)">
<g filter="url(#filter0_f_4_5166)">
<path fill-rule="evenodd" clip-rule="evenodd" d="M111.783 126.599C111.783 144.169 97.5449 158.413 79.9811 158.413C79.8578 158.413 79.7345 158.413 79.6115 158.411V158.413H-32.0657L-32.0646 158.412C-32.1881 158.413 -32.3118 158.414 -32.4357 158.414C-49.9995 158.414 -64.2378 144.17 -64.2378 126.599C-64.2378 109.029 -49.9995 94.7846 -32.4357 94.7846C-17.2963 94.7846 -4.62776 105.368 -1.41882 119.542L9.35102 105.882L43.0021 94.7838H79.6115V94.7859C79.7345 94.7845 79.8578 94.7838 79.9811 94.7838C97.5449 94.7838 111.783 109.028 111.783 126.599Z" fill="#E18700"/>
</g>
</g>
<g filter="url(#filter1_b_4_5166)">
<mask id="path-4-inside-1_4_5166" fill="white">
<path fill-rule="evenodd" clip-rule="evenodd" d="M118.855 129.078C118.944 129.079 119.034 129.08 119.123 129.08C131.816 129.08 142.106 118.786 142.106 106.087C142.106 93.3892 131.816 83.0952 119.123 83.0952C119.034 83.0952 118.944 83.0957 118.855 83.0967V83.0952H112.918C113.133 81.5216 113.243 79.9151 113.243 78.2826C113.243 58.7923 97.4497 42.9923 77.9671 42.9923C58.4846 42.9923 42.6909 58.7923 42.6909 78.2826C42.6909 80.1217 42.8315 81.928 43.1026 83.6913C41.425 83.3013 39.6769 83.0952 37.8806 83.0952C25.1874 83.0952 14.8976 93.3892 14.8976 106.087C14.8976 118.786 25.1874 129.08 37.8806 129.08C37.9701 129.08 38.0594 129.079 38.1486 129.078L38.1474 129.08H118.855V129.078Z"/>
</mask>
<path fill-rule="evenodd" clip-rule="evenodd" d="M118.855 129.078C118.944 129.079 119.034 129.08 119.123 129.08C131.816 129.08 142.106 118.786 142.106 106.087C142.106 93.3892 131.816 83.0952 119.123 83.0952C119.034 83.0952 118.944 83.0957 118.855 83.0967V83.0952H112.918C113.133 81.5216 113.243 79.9151 113.243 78.2826C113.243 58.7923 97.4497 42.9923 77.9671 42.9923C58.4846 42.9923 42.6909 58.7923 42.6909 78.2826C42.6909 80.1217 42.8315 81.928 43.1026 83.6913C41.425 83.3013 39.6769 83.0952 37.8806 83.0952C25.1874 83.0952 14.8976 93.3892 14.8976 106.087C14.8976 118.786 25.1874 129.08 37.8806 129.08C37.9701 129.08 38.0594 129.079 38.1486 129.078L38.1474 129.08H118.855V129.078Z" fill="url(#paint3_linear_4_5166)"/>
<path d="M118.855 129.078L118.878 127.078C118.344 127.072 117.829 127.28 117.449 127.656C117.069 128.032 116.855 128.544 116.855 129.078H118.855ZM118.855 83.0967H116.855C116.855 83.6311 117.069 84.1433 117.449 84.519C117.829 84.8947 118.344 85.1027 118.878 85.0966L118.855 83.0967ZM118.855 83.0952H120.855C120.855 81.9906 119.96 81.0952 118.855 81.0952V83.0952ZM112.918 83.0952L110.936 82.8251C110.858 83.3973 111.032 83.9754 111.411 84.4105C111.791 84.8455 112.341 85.0952 112.918 85.0952V83.0952ZM43.1026 83.6913L42.6498 85.6393C43.2964 85.7896 43.9754 85.6093 44.4622 85.1581C44.949 84.7068 45.1802 84.0434 45.0794 83.3874L43.1026 83.6913ZM38.1486 129.078L39.72 130.315C40.1964 129.71 40.2831 128.885 39.9428 128.194C39.6025 127.504 38.8958 127.069 38.1257 127.078L38.1486 129.078ZM38.1474 129.08L36.576 127.842C36.1021 128.444 36.0137 129.264 36.3482 129.953C36.6827 130.642 37.3814 131.08 38.1474 131.08V129.08ZM118.855 129.08V131.08C119.96 131.08 120.855 130.184 120.855 129.08H118.855ZM118.832 131.078C118.929 131.079 119.026 131.08 119.123 131.08V127.08C119.041 127.08 118.959 127.079 118.878 127.078L118.832 131.078ZM119.123 131.08C132.921 131.08 144.106 119.889 144.106 106.087H140.106C140.106 117.682 130.711 127.08 119.123 127.08V131.08ZM144.106 106.087C144.106 92.2853 132.921 81.0952 119.123 81.0952V85.0952C130.711 85.0952 140.106 94.493 140.106 106.087H144.106ZM119.123 81.0952C119.026 81.0952 118.929 81.0958 118.832 81.0969L118.878 85.0966C118.959 85.0957 119.041 85.0952 119.123 85.0952V81.0952ZM116.855 83.0952V83.0967H120.855V83.0952H116.855ZM112.918 85.0952H118.855V81.0952H112.918V85.0952ZM114.9 83.3653C115.126 81.7025 115.243 80.0057 115.243 78.2826H111.243C111.243 79.8244 111.139 81.3408 110.936 82.8251L114.9 83.3653ZM115.243 78.2826C115.243 57.6885 98.555 40.9923 77.9671 40.9923V44.9923C96.3444 44.9923 111.243 59.8961 111.243 78.2826H115.243ZM77.9671 40.9923C57.3793 40.9923 40.6909 57.6885 40.6909 78.2826H44.6909C44.6909 59.8961 59.5899 44.9923 77.9671 44.9923V40.9923ZM40.6909 78.2826C40.6909 80.2238 40.8393 82.1317 41.1258 83.9952L45.0794 83.3874C44.8237 81.7243 44.6909 80.0196 44.6909 78.2826H40.6909ZM43.5554 81.7432C41.7304 81.319 39.8304 81.0952 37.8806 81.0952V85.0952C39.5234 85.0952 41.1196 85.2837 42.6498 85.6393L43.5554 81.7432ZM37.8806 81.0952C24.0821 81.0952 12.8976 92.2853 12.8976 106.087H16.8976C16.8976 94.493 26.2928 85.0952 37.8806 85.0952V81.0952ZM12.8976 106.087C12.8976 119.889 24.0821 131.08 37.8806 131.08V127.08C26.2928 127.08 16.8976 117.682 16.8976 106.087H12.8976ZM37.8806 131.08C37.9777 131.08 38.0746 131.079 38.1715 131.078L38.1257 127.078C38.0441 127.079 37.9624 127.08 37.8806 127.08V131.08ZM39.7188 130.317L39.72 130.315L36.5772 127.841L36.576 127.842L39.7188 130.317ZM118.855 127.08H38.1474V131.08H118.855V127.08ZM116.855 129.078V129.08H120.855V129.078H116.855Z" fill="url(#paint4_linear_4_5166)" mask="url(#path-4-inside-1_4_5166)"/>
</g>
<defs>
<filter id="filter0_f_4_5166" x="-78.2378" y="80.7838" width="204.021" height="91.6302" filterUnits="userSpaceOnUse" color-interpolation-filters="sRGB">
<feFlood flood-opacity="0" result="BackgroundImageFix"/>
<feBlend mode="normal" in="SourceGraphic" in2="BackgroundImageFix" result="shape"/>
<feGaussianBlur stdDeviation="7" result="effect1_foregroundBlur_4_5166"/>
</filter>
<filter id="filter1_b_4_5166" x="0.897583" y="28.9923" width="155.208" height="114.087" filterUnits="userSpaceOnUse" color-interpolation-filters="sRGB">
<feFlood flood-opacity="0" result="BackgroundImageFix"/>
<feGaussianBlur in="BackgroundImageFix" stdDeviation="7"/>
<feComposite in2="SourceAlpha" operator="in" result="effect1_backgroundBlur_4_5166"/>
<feBlend mode="normal" in="SourceGraphic" in2="effect1_backgroundBlur_4_5166" result="shape"/>
</filter>
<linearGradient id="paint0_linear_4_5166" x1="45.2205" y1="3.0391" x2="45.2205" y2="90.3448" gradientUnits="userSpaceOnUse">
<stop stop-color="#FFE600"/>
<stop offset="1" stop-color="#FF7A00"/>
</linearGradient>
<linearGradient id="paint1_linear_4_5166" x1="45.2205" y1="3.0391" x2="45.2205" y2="90.3448" gradientUnits="userSpaceOnUse">
<stop stop-color="white"/>
<stop offset="1" stop-color="white" stop-opacity="0"/>
</linearGradient>
<linearGradient id="paint2_linear_4_5166" x1="45.2205" y1="3.03903" x2="45.2205" y2="90.3446" gradientUnits="userSpaceOnUse">
<stop stop-color="#FFD600"/>
<stop offset="1" stop-color="#FF7A00"/>
</linearGradient>
<linearGradient id="paint3_linear_4_5166" x1="84.4184" y1="45.5818" x2="84.4184" y2="138.807" gradientUnits="userSpaceOnUse">
<stop stop-color="white"/>
<stop offset="1" stop-color="white" stop-opacity="0"/>
</linearGradient>
<linearGradient id="paint4_linear_4_5166" x1="78.5018" y1="42.9923" x2="78.5018" y2="129.079" gradientUnits="userSpaceOnUse">
<stop stop-color="white"/>
<stop offset="1" stop-color="white" stop-opacity="0"/>
</linearGradient>
</defs>
</svg>
