<svg width="232" height="192" viewBox="0 0 232 192" fill="none" xmlns="http://www.w3.org/2000/svg">
<g filter="url(#filter0_b_4_5177)">
<path d="M112.197 138.637L136.326 94.4955C136.677 93.8539 137.35 93.4548 138.081 93.4548H160.695C162.198 93.4548 163.164 95.0514 162.466 96.3831L148.167 123.673C147.469 125.005 148.435 126.602 149.938 126.602H165.579C167.308 126.602 168.222 128.647 167.069 129.935L118.977 183.667C117.502 185.315 114.839 183.705 115.613 181.633L129.57 144.297C130.059 142.99 129.092 141.596 127.697 141.596H113.952C112.433 141.596 111.469 139.97 112.197 138.637Z" fill="url(#paint0_linear_4_5177)"/>
<path d="M113.075 139.117L137.204 94.9752C137.379 94.6543 137.716 94.4548 138.081 94.4548H160.695C161.446 94.4548 161.929 95.2531 161.58 95.9189L147.281 123.209C146.234 125.207 147.683 127.602 149.938 127.602H165.579C166.444 127.602 166.901 128.624 166.324 129.268L118.232 183.001C117.495 183.824 116.163 183.019 116.55 181.983L130.507 144.647C131.24 142.686 129.79 140.596 127.697 140.596H113.952C113.193 140.596 112.71 139.783 113.075 139.117Z" stroke="url(#paint1_linear_4_5177)" stroke-width="2"/>
</g>
<g filter="url(#filter1_bd_4_5177)">
<mask id="path-3-inside-1_4_5177" fill="white">
<path fill-rule="evenodd" clip-rule="evenodd" d="M173.474 120.286C173.562 120.287 173.65 120.288 173.738 120.288C186.237 120.288 196.369 110.159 196.369 97.6639C196.369 85.169 186.237 75.04 173.738 75.04C173.65 75.04 173.562 75.0405 173.474 75.0414V75.04H167.628C167.839 73.4917 167.948 71.9109 167.948 70.3047C167.948 51.1266 152.396 35.5796 133.211 35.5796C114.027 35.5796 98.4744 51.1266 98.4744 70.3047C98.4744 72.1143 98.6129 73.8916 98.8798 75.6265C97.2278 75.2428 95.5064 75.04 93.7375 75.04C81.2385 75.04 71.106 85.169 71.106 97.6639C71.106 110.159 81.2385 120.288 93.7375 120.288C93.8258 120.288 93.9139 120.287 94.002 120.286L94.0008 120.288H173.474V120.286Z"/>
</mask>
<path fill-rule="evenodd" clip-rule="evenodd" d="M173.474 120.286C173.562 120.287 173.65 120.288 173.738 120.288C186.237 120.288 196.369 110.159 196.369 97.6639C196.369 85.169 186.237 75.04 173.738 75.04C173.65 75.04 173.562 75.0405 173.474 75.0414V75.04H167.628C167.839 73.4917 167.948 71.9109 167.948 70.3047C167.948 51.1266 152.396 35.5796 133.211 35.5796C114.027 35.5796 98.4744 51.1266 98.4744 70.3047C98.4744 72.1143 98.6129 73.8916 98.8798 75.6265C97.2278 75.2428 95.5064 75.04 93.7375 75.04C81.2385 75.04 71.106 85.169 71.106 97.6639C71.106 110.159 81.2385 120.288 93.7375 120.288C93.8258 120.288 93.9139 120.287 94.002 120.286L94.0008 120.288H173.474V120.286Z" fill="url(#paint2_linear_4_5177)" shape-rendering="crispEdges"/>
<path d="M173.474 120.286L173.497 118.286C172.963 118.28 172.448 118.488 172.068 118.864C171.688 119.24 171.474 119.752 171.474 120.286H173.474ZM173.474 75.0414H171.474C171.474 75.5758 171.688 76.088 172.068 76.4637C172.448 76.8394 172.963 77.0474 173.497 77.0413L173.474 75.0414ZM173.474 75.04H175.474C175.474 73.9354 174.579 73.04 173.474 73.04V75.04ZM167.628 75.04L165.646 74.7697C165.568 75.3419 165.741 75.92 166.121 76.3551C166.501 76.7903 167.05 77.04 167.628 77.04V75.04ZM98.8798 75.6265L98.4273 77.5747C99.0739 77.7248 99.7528 77.5444 100.24 77.0931C100.726 76.6418 100.957 75.9785 100.857 75.3224L98.8798 75.6265ZM94.002 120.286L95.5712 121.526C96.049 120.922 96.1369 120.096 95.7969 119.404C95.457 118.712 94.7498 118.278 93.9791 118.286L94.002 120.286ZM94.0008 120.288L92.4316 119.048C91.9562 119.649 91.8666 120.47 92.2008 121.16C92.5349 121.85 93.2341 122.288 94.0008 122.288V120.288ZM173.474 120.288V122.288C174.579 122.288 175.474 121.392 175.474 120.288H173.474ZM173.452 122.286C173.547 122.287 173.642 122.288 173.738 122.288V118.288C173.657 118.288 173.577 118.287 173.497 118.286L173.452 122.286ZM173.738 122.288C187.341 122.288 198.369 111.264 198.369 97.6639H194.369C194.369 109.054 185.133 118.288 173.738 118.288V122.288ZM198.369 97.6639C198.369 84.0638 187.341 73.04 173.738 73.04V77.04C185.133 77.04 194.369 86.2742 194.369 97.6639H198.369ZM173.738 73.04C173.642 73.04 173.547 73.0405 173.452 73.0416L173.497 77.0413C173.577 77.0404 173.657 77.04 173.738 77.04V73.04ZM171.474 75.04V75.0414H175.474V75.04H171.474ZM167.628 77.04H173.474V73.04H167.628V77.04ZM169.609 75.3102C169.833 73.6726 169.948 72.0016 169.948 70.3047H165.948C165.948 71.8203 165.845 73.3107 165.646 74.7697L169.609 75.3102ZM169.948 70.3047C169.948 50.0214 153.5 33.5796 133.211 33.5796V37.5796C151.292 37.5796 165.948 52.2318 165.948 70.3047H169.948ZM133.211 33.5796C112.923 33.5796 96.4744 50.0214 96.4744 70.3047H100.474C100.474 52.2318 115.131 37.5796 133.211 37.5796V33.5796ZM96.4744 70.3047C96.4744 72.2165 96.6207 74.0954 96.9031 75.9306L100.857 75.3224C100.605 73.6877 100.474 72.0121 100.474 70.3047H96.4744ZM99.3323 73.6784C97.533 73.2604 95.6597 73.04 93.7375 73.04V77.04C95.353 77.04 96.9226 77.2252 98.4273 77.5747L99.3323 73.6784ZM93.7375 73.04C80.1345 73.04 69.106 84.0638 69.106 97.6639H73.106C73.106 86.2742 82.3424 77.04 93.7375 77.04V73.04ZM69.106 97.6639C69.106 111.264 80.1345 122.288 93.7375 122.288V118.288C82.3424 118.288 73.106 109.054 73.106 97.6639H69.106ZM93.7375 122.288C93.8334 122.288 93.9292 122.287 94.0248 122.286L93.9791 118.286C93.8987 118.287 93.8182 118.288 93.7375 118.288V122.288ZM95.57 121.528L95.5712 121.526L92.4328 119.046L92.4316 119.048L95.57 121.528ZM173.474 118.288H94.0008V122.288H173.474V118.288ZM171.474 120.286V120.288H175.474V120.286H171.474Z" fill="url(#paint3_linear_4_5177)" mask="url(#path-3-inside-1_4_5177)"/>
</g>
<g filter="url(#filter2_b_4_5177)">
<mask id="path-5-inside-2_4_5177" fill="white">
<path fill-rule="evenodd" clip-rule="evenodd" d="M214.56 96.7962C214.623 96.797 214.687 96.7973 214.75 96.7973C223.783 96.7973 231.106 89.4771 231.106 80.4472C231.106 71.4173 223.783 64.0972 214.75 64.0972C214.687 64.0972 214.623 64.0975 214.56 64.0982V64.0972H210.335C210.488 62.9782 210.566 61.8359 210.566 60.6751C210.566 46.8152 199.327 35.5796 185.462 35.5796C171.598 35.5796 160.359 46.8152 160.359 60.6751C160.359 61.9828 160.459 63.2672 160.651 64.5211C159.458 64.2438 158.213 64.0972 156.935 64.0972C147.902 64.0972 140.58 71.4173 140.58 80.4472C140.58 89.4771 147.902 96.7973 156.935 96.7973C156.999 96.7973 157.063 96.797 157.126 96.7962L157.125 96.7973H214.56V96.7962Z"/>
</mask>
<path fill-rule="evenodd" clip-rule="evenodd" d="M214.56 96.7962C214.623 96.797 214.687 96.7973 214.75 96.7973C223.783 96.7973 231.106 89.4771 231.106 80.4472C231.106 71.4173 223.783 64.0972 214.75 64.0972C214.687 64.0972 214.623 64.0975 214.56 64.0982V64.0972H210.335C210.488 62.9782 210.566 61.8359 210.566 60.6751C210.566 46.8152 199.327 35.5796 185.462 35.5796C171.598 35.5796 160.359 46.8152 160.359 60.6751C160.359 61.9828 160.459 63.2672 160.651 64.5211C159.458 64.2438 158.213 64.0972 156.935 64.0972C147.902 64.0972 140.58 71.4173 140.58 80.4472C140.58 89.4771 147.902 96.7973 156.935 96.7973C156.999 96.7973 157.063 96.797 157.126 96.7962L157.125 96.7973H214.56V96.7962Z" fill="url(#paint4_linear_4_5177)"/>
<path d="M214.56 96.7962L214.583 94.7964C214.049 94.7903 213.534 94.9983 213.154 95.374C212.774 95.7497 212.56 96.2618 212.56 96.7962H214.56ZM214.56 64.0982H212.56C212.56 64.6326 212.774 65.1448 213.154 65.5205C213.534 65.8962 214.049 66.1042 214.583 66.0981L214.56 64.0982ZM214.56 64.0972H216.56C216.56 62.9926 215.665 62.0972 214.56 62.0972V64.0972ZM210.335 64.0972L208.353 63.8269C208.275 64.3991 208.448 64.9772 208.828 65.4123C209.208 65.8475 209.757 66.0972 210.335 66.0972V64.0972ZM160.651 64.5211L160.199 66.4692C160.846 66.6194 161.525 66.439 162.011 65.9877C162.498 65.5364 162.729 64.873 162.628 64.2169L160.651 64.5211ZM157.126 96.7962L158.695 98.0362C159.173 97.4315 159.261 96.6059 158.921 95.9141C158.581 95.2224 157.874 94.7875 157.103 94.7964L157.126 96.7962ZM157.125 96.7973L155.556 95.5573C155.081 96.1588 154.991 96.9791 155.325 97.6691C155.66 98.3591 156.359 98.7973 157.125 98.7973V96.7973ZM214.56 96.7973V98.7973C215.665 98.7973 216.56 97.9019 216.56 96.7973H214.56ZM214.537 98.7961C214.608 98.7969 214.679 98.7973 214.75 98.7973V94.7973C214.694 94.7973 214.639 94.797 214.583 94.7964L214.537 98.7961ZM214.75 98.7973C224.887 98.7973 233.106 90.5823 233.106 80.4472H229.106C229.106 88.3719 222.679 94.7973 214.75 94.7973V98.7973ZM233.106 80.4472C233.106 70.3121 224.887 62.0972 214.75 62.0972V66.0972C222.679 66.0972 229.106 72.5225 229.106 80.4472H233.106ZM214.75 62.0972C214.679 62.0972 214.608 62.0976 214.537 62.0984L214.583 66.0981C214.639 66.0975 214.694 66.0972 214.75 66.0972V62.0972ZM212.56 64.0972V64.0982H216.56V64.0972H212.56ZM210.335 66.0972H214.56V62.0972H210.335V66.0972ZM212.317 64.3675C212.481 63.1592 212.566 61.9265 212.566 60.6751H208.566C208.566 61.7452 208.494 62.7973 208.353 63.8269L212.317 64.3675ZM212.566 60.6751C212.566 45.71 200.431 33.5796 185.462 33.5796V37.5796C198.223 37.5796 208.566 47.9204 208.566 60.6751H212.566ZM185.462 33.5796C170.494 33.5796 158.359 45.71 158.359 60.6751H162.359C162.359 47.9204 172.702 37.5796 185.462 37.5796V33.5796ZM158.359 60.6751C158.359 62.085 158.466 63.4711 158.675 64.8252L162.628 64.2169C162.451 63.0634 162.359 61.8807 162.359 60.6751H158.359ZM161.104 62.5729C159.763 62.2614 158.367 62.0972 156.935 62.0972V66.0972C158.06 66.0972 159.152 66.2261 160.199 66.4692L161.104 62.5729ZM156.935 62.0972C146.798 62.0972 138.58 70.3121 138.58 80.4472H142.58C142.58 72.5225 149.006 66.0972 156.935 66.0972V62.0972ZM138.58 80.4472C138.58 90.5823 146.798 98.7973 156.935 98.7973V94.7973C149.006 94.7973 142.58 88.3719 142.58 80.4472H138.58ZM156.935 98.7973C157.007 98.7973 157.078 98.7969 157.149 98.7961L157.103 94.7964C157.047 94.797 156.991 94.7973 156.935 94.7973V98.7973ZM158.695 98.0373L158.695 98.0362L155.557 95.5562L155.556 95.5573L158.695 98.0373ZM214.56 94.7973H157.125V98.7973H214.56V94.7973ZM212.56 96.7962V96.7973H216.56V96.7962H212.56Z" fill="url(#paint5_linear_4_5177)" mask="url(#path-5-inside-2_4_5177)"/>
</g>
<defs>
<filter id="filter0_b_4_5177" x="97.9492" y="79.4548" width="83.6338" height="118.892" filterUnits="userSpaceOnUse" color-interpolation-filters="sRGB">
<feFlood flood-opacity="0" result="BackgroundImageFix"/>
<feGaussianBlur in="BackgroundImageFix" stdDeviation="7"/>
<feComposite in2="SourceAlpha" operator="in" result="effect1_backgroundBlur_4_5177"/>
<feBlend mode="normal" in="SourceGraphic" in2="effect1_backgroundBlur_4_5177" result="shape"/>
</filter>
<filter id="filter1_bd_4_5177" x="0.105957" y="0.57959" width="225.263" height="184.708" filterUnits="userSpaceOnUse" color-interpolation-filters="sRGB">
<feFlood flood-opacity="0" result="BackgroundImageFix"/>
<feGaussianBlur in="BackgroundImageFix" stdDeviation="7"/>
<feComposite in2="SourceAlpha" operator="in" result="effect1_backgroundBlur_4_5177"/>
<feColorMatrix in="SourceAlpha" type="matrix" values="0 0 0 0 0 0 0 0 0 0 0 0 0 0 0 0 0 0 127 0" result="hardAlpha"/>
<feOffset dx="-21" dy="15"/>
<feGaussianBlur stdDeviation="25"/>
<feComposite in2="hardAlpha" operator="out"/>
<feColorMatrix type="matrix" values="0 0 0 0 0.113725 0 0 0 0 0.14902 0 0 0 0 0.27451 0 0 0 0.25 0"/>
<feBlend mode="normal" in2="effect1_backgroundBlur_4_5177" result="effect2_dropShadow_4_5177"/>
<feBlend mode="normal" in="SourceGraphic" in2="effect2_dropShadow_4_5177" result="shape"/>
</filter>
<filter id="filter2_b_4_5177" x="126.58" y="21.5796" width="118.526" height="89.2177" filterUnits="userSpaceOnUse" color-interpolation-filters="sRGB">
<feFlood flood-opacity="0" result="BackgroundImageFix"/>
<feGaussianBlur in="BackgroundImageFix" stdDeviation="7"/>
<feComposite in2="SourceAlpha" operator="in" result="effect1_backgroundBlur_4_5177"/>
<feBlend mode="normal" in="SourceGraphic" in2="effect1_backgroundBlur_4_5177" result="shape"/>
</filter>
<linearGradient id="paint0_linear_4_5177" x1="146.106" y1="99.2423" x2="132.956" y2="156.33" gradientUnits="userSpaceOnUse">
<stop stop-color="#FF4D00"/>
<stop offset="1" stop-color="#FFB800"/>
</linearGradient>
<linearGradient id="paint1_linear_4_5177" x1="128.474" y1="155.539" x2="152.408" y2="104.234" gradientUnits="userSpaceOnUse">
<stop stop-color="white"/>
<stop offset="1" stop-color="white" stop-opacity="0"/>
</linearGradient>
<linearGradient id="paint2_linear_4_5177" x1="133.738" y1="8.48347" x2="133.738" y2="132.126" gradientUnits="userSpaceOnUse">
<stop stop-color="white"/>
<stop offset="1" stop-color="white" stop-opacity="0"/>
</linearGradient>
<linearGradient id="paint3_linear_4_5177" x1="133.738" y1="35.5796" x2="133.738" y2="120.288" gradientUnits="userSpaceOnUse">
<stop stop-color="white"/>
<stop offset="1" stop-color="white" stop-opacity="0"/>
</linearGradient>
<linearGradient id="paint4_linear_4_5177" x1="190.053" y1="37.4211" x2="190.053" y2="103.714" gradientUnits="userSpaceOnUse">
<stop stop-color="white"/>
<stop offset="1" stop-color="white" stop-opacity="0"/>
</linearGradient>
<linearGradient id="paint5_linear_4_5177" x1="185.843" y1="35.5796" x2="185.843" y2="96.7973" gradientUnits="userSpaceOnUse">
<stop stop-color="white"/>
<stop offset="1" stop-color="white" stop-opacity="0"/>
</linearGradient>
</defs>
</svg>
